0
SECTION
2
HEADER
9
$ACADVER
1
AC1009
9
$INSUNITS
70
4
9
$MEASUREMENT
70
1
9
$LUNITS
70
2
9
$LUPREC
70
1
9
$TILEMODE
70
1
9
$EXTMIN
10
-2913.63
20
-2491.726273
30
0
9
$EXTMAX
10
2913.63
20
2491.726273
30
0
9
$PEXTMIN
10
-2913.63
20
-2491.726273
30
0
9
$PEXTMAX
10
2913.63
20
2491.726273
30
0
9
$LIMMIN
10
-3413.63
20
-2991.726273
9
$LIMMAX
10
3413.63
20
2991.726273
9
$PLIMMIN
10
-3413.63
20
-2991.726273
9
$PLIMMAX
10
3413.63
20
2991.726273
0
ENDSEC
0
SECTION
2
TABLES
0
TABLE
2
VPORT
70
1
0
VPORT
2
*ACTIVE
70
0
10
0
20
0
11
1
21
1
12
0
22
0
40
5983.452545
41
1.141024
42
50
43
0
44
0
50
0
51
0
71
0
72
100
73
1
74
3
75
0
76
0
77
0
78
0
0
ENDTAB
0
TABLE
2
LTYPE
70
2
0
LTYPE
2
CONTINUOUS
70
0
3
Solid line
72
65
73
0
40
0
0
LTYPE
2
DASHED
70
0
3
Dashed
72
65
73
2
40
240
49
120
74
0
49
-120
74
0
0
ENDTAB
0
TABLE
2
LAYER
70
6
0
LAYER
2
PIPES
70
0
62
5
6
CONTINUOUS
0
LAYER
2
PIPE_ENDS
70
0
62
5
6
CONTINUOUS
0
LAYER
2
DIMENSION
70
0
62
1
6
CONTINUOUS
0
LAYER
2
LEVEL_GUIDE
70
0
62
1
6
DASHED
0
LAYER
2
LEVEL_TEXT
70
0
62
1
6
CONTINUOUS
0
LAYER
2
FRAME
70
0
62
5
6
CONTINUOUS
0
ENDTAB
0
TABLE
2
STYLE
70
1
0
STYLE
2
STANDARD
70
0
40
0
41
1
50
0
71
0
42
100
3
txt
4

0
ENDTAB
0
ENDSEC
0
SECTION
2
BLOCKS
0
BLOCK
8
0
2
$MODEL_SPACE
70
0
10
0
20
0
30
0
3
$MODEL_SPACE
0
ENDBLK
8
0
0
BLOCK
67
1
8
0
2
$PAPER_SPACE
70
0
10
0
20
0
30
0
3
$PAPER_SPACE
0
ENDBLK
67
1
8
0
0
ENDSEC
0
SECTION
2
ENTITIES
0
LINE
8
PIPES
10
-733.63
20
-1271.725273
30
0
11
1266.38
21
-1271.725273
31
0
0
LINE
8
PIPES
10
-2733.63
20
-1271.725273
30
0
11
-2733.63
21
-1571.726273
31
0
0
LINE
8
PIPES
10
1266.38
20
-1271.725273
30
0
11
1266.38
21
-1571.726273
31
0
0
LINE
8
PIPES
10
-733.63
20
-1271.725273
30
0
11
-733.63
21
-1571.726273
31
0
0
LINE
8
PIPES
10
-2733.63
20
428.274727
30
0
11
-2733.63
21
-1271.725273
31
0
0
LINE
8
PIPES
10
1266.38
20
428.274727
30
0
11
1266.38
21
-1271.725273
31
0
0
LINE
8
PIPES
10
-733.63
20
428.274727
30
0
11
-733.63
21
-1271.725273
31
0
0
LINE
8
PIPES
10
-733.63
20
428.274727
30
0
11
-2733.63
21
428.274727
31
0
0
LINE
8
PIPES
10
-733.63
20
428.274727
30
0
11
1266.38
21
428.274727
31
0
0
LINE
8
PIPES
10
-2733.63
20
1828.284727
30
0
11
-2733.63
21
428.274727
31
0
0
LINE
8
PIPES
10
1266.38
20
1828.284727
30
0
11
1266.38
21
428.274727
31
0
0
LINE
8
PIPES
10
-2733.63
20
428.274727
30
0
11
-2733.63
21
2128.284727
31
0
0
LINE
8
PIPES
10
1266.38
20
428.274727
30
0
11
1266.38
21
2128.284727
31
0
0
LINE
8
PIPES
10
-733.63
20
1828.284727
30
0
11
-733.63
21
428.274727
31
0
0
LINE
8
PIPES
10
-733.63
20
2128.284727
30
0
11
-2733.63
21
2128.284727
31
0
0
LINE
8
PIPES
10
-733.63
20
2128.284727
30
0
11
1266.38
21
2128.284727
31
0
0
LINE
8
PIPES
10
-2733.63
20
2128.284727
30
0
11
-2733.63
21
2428.284727
31
0
0
LINE
8
PIPES
10
1266.38
20
2428.284727
30
0
11
1266.38
21
2128.284727
31
0
0
LINE
8
PIPES
10
-733.63
20
2128.284727
30
0
11
-733.63
21
2428.284727
31
0
0
LINE
8
PIPES
10
-733.63
20
2428.284727
30
0
11
-2733.63
21
2428.284727
31
0
0
LINE
8
PIPES
10
-733.63
20
2428.284727
30
0
11
1266.38
21
2428.284727
31
0
0
LINE
8
PIPES
10
-733.63
20
2128.284727
30
0
11
-983.63
21
2128.284727
31
0
0
LINE
8
PIPES
10
-733.63
20
2428.284727
30
0
11
-983.63
21
2428.284727
31
0
0
LINE
8
PIPES
10
-1233.63
20
2128.284727
30
0
11
-1233.63
21
2428.284727
31
0
0
LINE
8
PIPES
10
-1233.63
20
2128.284727
30
0
11
-1533.63
21
2128.284727
31
0
0
LINE
8
PIPES
10
-1233.63
20
2428.284727
30
0
11
-1533.63
21
2428.284727
31
0
0
LINE
8
PIPES
10
-1533.63
20
2128.284727
30
0
11
-1533.63
21
2428.284727
31
0
0
LINE
8
PIPES
10
-1533.63
20
2128.284727
30
0
11
-1833.628
21
2128.284727
31
0
0
LINE
8
PIPES
10
-1533.63
20
2428.284727
30
0
11
-1683.63
21
2428.284727
31
0
0
LINE
8
PIPES
10
-1833.628
20
2128.284727
30
0
11
-1833.628
21
2428.284727
31
0
0
LINE
8
PIPES
10
-1833.628
20
2128.284727
30
0
11
-2133.629
21
2128.284727
31
0
0
LINE
8
PIPES
10
-1833.628
20
2428.284727
30
0
11
-2133.629
21
2428.284727
31
0
0
LINE
8
PIPES
10
-2133.629
20
2128.284727
30
0
11
-2133.629
21
2428.284727
31
0
0
LINE
8
PIPES
10
-2133.629
20
2128.284727
30
0
11
-2433.629
21
2128.284727
31
0
0
LINE
8
PIPES
10
-2133.629
20
2428.284727
30
0
11
-2433.629
21
2428.284727
31
0
0
LINE
8
PIPES
10
-2433.629
20
2128.284727
30
0
11
-2433.629
21
2428.284727
31
0
0
LINE
8
PIPES
10
-2433.629
20
2128.284727
30
0
11
-2733.63
21
2128.284727
31
0
0
LINE
8
PIPES
10
-2433.629
20
2428.284727
30
0
11
-2733.63
21
2428.284727
31
0
0
LINE
8
PIPES
10
-733.63
20
2128.284727
30
0
11
-633.63
21
2128.284727
31
0
0
LINE
8
PIPES
10
-733.63
20
2428.284727
30
0
11
-633.63
21
2428.284727
31
0
0
LINE
8
PIPES
10
-633.63
20
2128.284727
30
0
11
-633.63
21
2428.284727
31
0
0
LINE
8
PIPES
10
-633.63
20
2128.284727
30
0
11
-333.63
21
2128.284727
31
0
0
LINE
8
PIPES
10
-633.63
20
2428.284727
30
0
11
-333.63
21
2428.284727
31
0
0
LINE
8
PIPES
10
-333.63
20
2128.284727
30
0
11
-333.63
21
2428.284727
31
0
0
LINE
8
PIPES
10
-333.63
20
2128.284727
30
0
11
-33.62
21
2128.284727
31
0
0
LINE
8
PIPES
10
-333.63
20
2428.284727
30
0
11
-33.62
21
2428.284727
31
0
0
LINE
8
PIPES
10
-33.62
20
2128.284727
30
0
11
-33.62
21
2428.284727
31
0
0
LINE
8
PIPES
10
-33.62
20
2128.284727
30
0
11
266.38
21
2128.284727
31
0
0
LINE
8
PIPES
10
-33.62
20
2428.284727
30
0
11
266.38
21
2428.284727
31
0
0
LINE
8
PIPES
10
266.38
20
2128.284727
30
0
11
266.38
21
2428.284727
31
0
0
LINE
8
PIPES
10
266.38
20
2128.284727
30
0
11
566.38
21
2128.284727
31
0
0
LINE
8
PIPES
10
266.38
20
2428.284727
30
0
11
566.38
21
2428.284727
31
0
0
LINE
8
PIPES
10
566.38
20
2128.284727
30
0
11
566.38
21
2428.284727
31
0
0
LINE
8
PIPES
10
566.38
20
2128.284727
30
0
11
866.38
21
2128.284727
31
0
0
LINE
8
PIPES
10
566.38
20
2428.284727
30
0
11
866.38
21
2428.284727
31
0
0
LINE
8
PIPES
10
866.38
20
2128.284727
30
0
11
866.38
21
2428.284727
31
0
0
LINE
8
PIPES
10
866.38
20
2128.284727
30
0
11
1266.38
21
2128.284727
31
0
0
LINE
8
PIPES
10
866.38
20
2428.284727
30
0
11
1266.38
21
2428.284727
31
0
0
LINE
8
PIPES
10
-2733.63
20
1828.284727
30
0
11
-2733.63
21
2128.284727
31
0
0
LINE
8
PIPES
10
1266.38
20
1828.284727
30
0
11
1266.38
21
2128.284727
31
0
0
LINE
8
PIPES
10
-733.63
20
1828.284727
30
0
11
-733.63
21
2128.284727
31
0
0
LINE
8
PIPES
10
-733.63
20
-1271.725273
30
0
11
-2733.63
21
-1271.725273
31
0
0
LINE
8
PIPES
10
-983.63
20
2428.284727
30
0
11
-1233.63
21
2428.284727
31
0
0
LINE
8
PIPES
10
-983.63
20
2128.284727
30
0
11
-1233.63
21
2128.284727
31
0
0
LINE
8
PIPES
10
-983.63
20
2128.284727
30
0
11
-983.63
21
2428.284727
31
0
0
LINE
8
PIPES
10
-2733.63
20
2128.284727
30
0
11
-733.63
21
428.274727
31
0
0
LINE
8
PIPES
10
-733.63
20
428.274727
30
0
11
-2733.63
21
-1271.725273
31
0
0
LINE
8
PIPES
10
-733.63
20
2128.284727
30
0
11
1266.38
21
428.274727
31
0
0
LINE
8
PIPES
10
1266.38
20
428.274727
30
0
11
-733.63
21
-1271.725273
31
0
0
LINE
8
PIPES
10
-733.63
20
2128.284727
30
0
11
-2733.63
21
428.274727
31
0
0
LINE
8
PIPES
10
-2733.63
20
428.274727
30
0
11
-733.63
21
-1271.725273
31
0
0
LINE
8
PIPES
10
1266.38
20
2128.284727
30
0
11
-733.63
21
428.274727
31
0
0
LINE
8
PIPES
10
-733.63
20
428.274727
30
0
11
1266.38
21
-1271.725273
31
0
0
LINE
8
PIPES
10
-1683.63
20
2428.284727
30
0
11
-1833.628
21
2428.284727
31
0
0
CIRCLE
8
PIPE_ENDS
10
-2733.63
20
-1271.725273
30
0
40
32
0
CIRCLE
8
PIPE_ENDS
10
1266.37
20
-1271.725273
30
0
40
32
0
CIRCLE
8
PIPE_ENDS
10
-733.63
20
-1271.725273
30
0
40
32
0
CIRCLE
8
PIPE_ENDS
10
-2733.63
20
428.274727
30
0
40
32
0
CIRCLE
8
PIPE_ENDS
10
1266.37
20
428.274727
30
0
40
32
0
CIRCLE
8
PIPE_ENDS
10
-733.63
20
428.274727
30
0
40
32
0
CIRCLE
8
PIPE_ENDS
10
-2733.63
20
2128.274727
30
0
40
32
0
CIRCLE
8
PIPE_ENDS
10
1266.37
20
2128.274727
30
0
40
32
0
CIRCLE
8
PIPE_ENDS
10
-733.63
20
2128.274727
30
0
40
32
0
CIRCLE
8
PIPE_ENDS
10
-2733.63
20
2428.274727
30
0
40
32
0
CIRCLE
8
PIPE_ENDS
10
1266.37
20
2428.274727
30
0
40
32
0
CIRCLE
8
PIPE_ENDS
10
-733.63
20
2428.274727
30
0
40
32
0
CIRCLE
8
PIPE_ENDS
10
-2733.63
20
1828.274727
30
0
40
32
0
CIRCLE
8
PIPE_ENDS
10
1266.37
20
1828.274727
30
0
40
32
0
CIRCLE
8
PIPE_ENDS
10
-733.63
20
1828.274727
30
0
40
32
0
LINE
8
LEVEL_GUIDE
6
DASHED
10
-2913.63
20
-1571.725273
30
0
11
1446.38
21
-1571.725273
31
0
0
LINE
8
LEVEL_GUIDE
6
DASHED
10
-2913.63
20
-1271.725273
30
0
11
1446.38
21
-1271.725273
31
0
0
LINE
8
LEVEL_GUIDE
6
DASHED
10
-2913.63
20
428.274727
30
0
11
1446.38
21
428.274727
31
0
0
LINE
8
LEVEL_GUIDE
6
DASHED
10
-2913.63
20
1828.284727
30
0
11
1446.38
21
1828.284727
31
0
0
LINE
8
LEVEL_GUIDE
6
DASHED
10
-2913.63
20
2128.284727
30
0
11
1446.38
21
2128.284727
31
0
0
LINE
8
LEVEL_GUIDE
6
DASHED
10
-2913.63
20
2428.284727
30
0
11
1446.38
21
2428.284727
31
0
0
LINE
8
DIMENSION
10
-2733.63
20
-1631.726273
30
0
11
-2733.63
21
-1951.726273
31
0
0
LINE
8
DIMENSION
10
-2133.63
20
-1631.726273
30
0
11
-2133.63
21
-1951.726273
31
0
0
LINE
8
DIMENSION
10
-2733.63
20
-1951.726273
30
0
11
-2133.63
21
-1951.726273
31
0
0
LINE
8
DIMENSION
10
-2733.63
20
-1951.726273
30
0
11
-2797.071545
21
-1922.142994
31
0
0
LINE
8
DIMENSION
10
-2733.63
20
-1951.726273
30
0
11
-2797.071545
21
-1981.309551
31
0
0
LINE
8
DIMENSION
10
-2133.63
20
-1951.726273
30
0
11
-2070.188455
21
-1981.309551
31
0
0
LINE
8
DIMENSION
10
-2133.63
20
-1951.726273
30
0
11
-2070.188455
21
-1922.142994
31
0
0
TEXT
8
DIMENSION
10
-2433.63
20
-2121.726273
30
0
40
85
1
0.6
50
0
7
STANDARD
72
1
73
2
11
-2433.63
21
-2121.726273
31
0
0
LINE
8
DIMENSION
10
-2133.63
20
-1631.726273
30
0
11
-2133.63
21
-1951.726273
31
0
0
LINE
8
DIMENSION
10
-1533.63
20
-1631.726273
30
0
11
-1533.63
21
-1951.726273
31
0
0
LINE
8
DIMENSION
10
-2133.63
20
-1951.726273
30
0
11
-1533.63
21
-1951.726273
31
0
0
LINE
8
DIMENSION
10
-2133.63
20
-1951.726273
30
0
11
-2197.071545
21
-1922.142994
31
0
0
LINE
8
DIMENSION
10
-2133.63
20
-1951.726273
30
0
11
-2197.071545
21
-1981.309551
31
0
0
LINE
8
DIMENSION
10
-1533.63
20
-1951.726273
30
0
11
-1470.188455
21
-1981.309551
31
0
0
LINE
8
DIMENSION
10
-1533.63
20
-1951.726273
30
0
11
-1470.188455
21
-1922.142994
31
0
0
TEXT
8
DIMENSION
10
-1833.63
20
-2121.726273
30
0
40
85
1
0.6
50
0
7
STANDARD
72
1
73
2
11
-1833.63
21
-2121.726273
31
0
0
LINE
8
DIMENSION
10
-1533.63
20
-1631.726273
30
0
11
-1533.63
21
-1951.726273
31
0
0
LINE
8
DIMENSION
10
-733.63
20
-1631.726273
30
0
11
-733.63
21
-1951.726273
31
0
0
LINE
8
DIMENSION
10
-1533.63
20
-1951.726273
30
0
11
-733.63
21
-1951.726273
31
0
0
LINE
8
DIMENSION
10
-1533.63
20
-1951.726273
30
0
11
-1597.071545
21
-1922.142994
31
0
0
LINE
8
DIMENSION
10
-1533.63
20
-1951.726273
30
0
11
-1597.071545
21
-1981.309551
31
0
0
LINE
8
DIMENSION
10
-733.63
20
-1951.726273
30
0
11
-670.188455
21
-1981.309551
31
0
0
LINE
8
DIMENSION
10
-733.63
20
-1951.726273
30
0
11
-670.188455
21
-1922.142994
31
0
0
TEXT
8
DIMENSION
10
-1133.63
20
-2121.726273
30
0
40
85
1
0.8
50
0
7
STANDARD
72
1
73
2
11
-1133.63
21
-2121.726273
31
0
0
LINE
8
DIMENSION
10
-733.63
20
-1631.726273
30
0
11
-733.63
21
-1951.726273
31
0
0
LINE
8
DIMENSION
10
-333.63
20
-1631.726273
30
0
11
-333.63
21
-1951.726273
31
0
0
LINE
8
DIMENSION
10
-733.63
20
-1951.726273
30
0
11
-333.63
21
-1951.726273
31
0
0
LINE
8
DIMENSION
10
-733.63
20
-1951.726273
30
0
11
-797.071545
21
-1922.142994
31
0
0
LINE
8
DIMENSION
10
-733.63
20
-1951.726273
30
0
11
-797.071545
21
-1981.309551
31
0
0
LINE
8
DIMENSION
10
-333.63
20
-1951.726273
30
0
11
-270.188455
21
-1981.309551
31
0
0
LINE
8
DIMENSION
10
-333.63
20
-1951.726273
30
0
11
-270.188455
21
-1922.142994
31
0
0
TEXT
8
DIMENSION
10
-533.63
20
-2121.726273
30
0
40
85
1
0.4
50
0
7
STANDARD
72
1
73
2
11
-533.63
21
-2121.726273
31
0
0
LINE
8
DIMENSION
10
-333.63
20
-1631.726273
30
0
11
-333.63
21
-1951.726273
31
0
0
LINE
8
DIMENSION
10
1266.38
20
-1631.726273
30
0
11
1266.38
21
-1951.726273
31
0
0
LINE
8
DIMENSION
10
-333.63
20
-1951.726273
30
0
11
1266.38
21
-1951.726273
31
0
0
LINE
8
DIMENSION
10
-333.63
20
-1951.726273
30
0
11
-397.071545
21
-1922.142994
31
0
0
LINE
8
DIMENSION
10
-333.63
20
-1951.726273
30
0
11
-397.071545
21
-1981.309551
31
0
0
LINE
8
DIMENSION
10
1266.38
20
-1951.726273
30
0
11
1329.821545
21
-1981.309551
31
0
0
LINE
8
DIMENSION
10
1266.38
20
-1951.726273
30
0
11
1329.821545
21
-1922.142994
31
0
0
TEXT
8
DIMENSION
10
466.375
20
-2121.726273
30
0
40
85
1
1.6
50
0
7
STANDARD
72
1
73
2
11
466.375
21
-2121.726273
31
0
0
LINE
8
DIMENSION
10
-2733.63
20
-1631.726273
30
0
11
-2733.63
21
-2321.726273
31
0
0
LINE
8
DIMENSION
10
1266.38
20
-1631.726273
30
0
11
1266.38
21
-2321.726273
31
0
0
LINE
8
DIMENSION
10
-2733.63
20
-2321.726273
30
0
11
1266.38
21
-2321.726273
31
0
0
LINE
8
DIMENSION
10
-2733.63
20
-2321.726273
30
0
11
-2797.071545
21
-2292.142994
31
0
0
LINE
8
DIMENSION
10
-2733.63
20
-2321.726273
30
0
11
-2797.071545
21
-2351.309551
31
0
0
LINE
8
DIMENSION
10
1266.38
20
-2321.726273
30
0
11
1329.821545
21
-2351.309551
31
0
0
LINE
8
DIMENSION
10
1266.38
20
-2321.726273
30
0
11
1329.821545
21
-2292.142994
31
0
0
TEXT
8
DIMENSION
10
-733.625
20
-2491.726273
30
0
40
85
1
TOTAL 4
50
0
7
STANDARD
72
1
73
2
11
-733.625
21
-2491.726273
31
0
0
LINE
8
DIMENSION
10
1326.38
20
-1571.725273
30
0
11
1966.38
21
-1571.725273
31
0
0
LINE
8
DIMENSION
10
1326.38
20
-1271.725273
30
0
11
1966.38
21
-1271.725273
31
0
0
LINE
8
DIMENSION
10
1966.38
20
-1571.725273
30
0
11
1966.38
21
-1271.725273
31
0
0
LINE
8
DIMENSION
10
1966.38
20
-1571.725273
30
0
11
1936.796722
21
-1635.166818
31
0
0
LINE
8
DIMENSION
10
1966.38
20
-1571.725273
30
0
11
1995.963278
21
-1635.166818
31
0
0
LINE
8
DIMENSION
10
1966.38
20
-1271.725273
30
0
11
1995.963278
21
-1208.283727
31
0
0
LINE
8
DIMENSION
10
1966.38
20
-1271.725273
30
0
11
1936.796722
21
-1208.283727
31
0
0
TEXT
8
DIMENSION
10
2136.38
20
-1421.725273
30
0
40
85
1
0.3
50
90
7
STANDARD
72
1
73
2
11
2136.38
21
-1421.725273
31
0
0
LINE
8
DIMENSION
10
1326.38
20
-1271.725273
30
0
11
1966.38
21
-1271.725273
31
0
0
LINE
8
DIMENSION
10
1326.38
20
428.274727
30
0
11
1966.38
21
428.274727
31
0
0
LINE
8
DIMENSION
10
1966.38
20
-1271.725273
30
0
11
1966.38
21
428.274727
31
0
0
LINE
8
DIMENSION
10
1966.38
20
-1271.725273
30
0
11
1936.796722
21
-1335.166818
31
0
0
LINE
8
DIMENSION
10
1966.38
20
-1271.725273
30
0
11
1995.963278
21
-1335.166818
31
0
0
LINE
8
DIMENSION
10
1966.38
20
428.274727
30
0
11
1995.963278
21
491.716273
31
0
0
LINE
8
DIMENSION
10
1966.38
20
428.274727
30
0
11
1936.796722
21
491.716273
31
0
0
TEXT
8
DIMENSION
10
2136.38
20
-421.725273
30
0
40
85
1
1.7
50
90
7
STANDARD
72
1
73
2
11
2136.38
21
-421.725273
31
0
0
LINE
8
DIMENSION
10
1326.38
20
428.274727
30
0
11
1966.38
21
428.274727
31
0
0
LINE
8
DIMENSION
10
1326.38
20
1828.284727
30
0
11
1966.38
21
1828.284727
31
0
0
LINE
8
DIMENSION
10
1966.38
20
428.274727
30
0
11
1966.38
21
1828.284727
31
0
0
LINE
8
DIMENSION
10
1966.38
20
428.274727
30
0
11
1936.796722
21
364.833182
31
0
0
LINE
8
DIMENSION
10
1966.38
20
428.274727
30
0
11
1995.963278
21
364.833182
31
0
0
LINE
8
DIMENSION
10
1966.38
20
1828.284727
30
0
11
1995.963278
21
1891.726273
31
0
0
LINE
8
DIMENSION
10
1966.38
20
1828.284727
30
0
11
1936.796722
21
1891.726273
31
0
0
TEXT
8
DIMENSION
10
2136.38
20
1128.279727
30
0
40
85
1
1.4
50
90
7
STANDARD
72
1
73
2
11
2136.38
21
1128.279727
31
0
0
LINE
8
DIMENSION
10
1326.38
20
1828.284727
30
0
11
1966.38
21
1828.284727
31
0
0
LINE
8
DIMENSION
10
1326.38
20
2128.284727
30
0
11
1966.38
21
2128.284727
31
0
0
LINE
8
DIMENSION
10
1966.38
20
1828.284727
30
0
11
1966.38
21
2128.284727
31
0
0
LINE
8
DIMENSION
10
1966.38
20
1828.284727
30
0
11
1936.796722
21
1764.843182
31
0
0
LINE
8
DIMENSION
10
1966.38
20
1828.284727
30
0
11
1995.963278
21
1764.843182
31
0
0
LINE
8
DIMENSION
10
1966.38
20
2128.284727
30
0
11
1995.963278
21
2191.726273
31
0
0
LINE
8
DIMENSION
10
1966.38
20
2128.284727
30
0
11
1936.796722
21
2191.726273
31
0
0
TEXT
8
DIMENSION
10
2136.38
20
1978.284727
30
0
40
85
1
0.3
50
90
7
STANDARD
72
1
73
2
11
2136.38
21
1978.284727
31
0
0
LINE
8
DIMENSION
10
1326.38
20
2128.284727
30
0
11
1966.38
21
2128.284727
31
0
0
LINE
8
DIMENSION
10
1326.38
20
2428.284727
30
0
11
1966.38
21
2428.284727
31
0
0
LINE
8
DIMENSION
10
1966.38
20
2128.284727
30
0
11
1966.38
21
2428.284727
31
0
0
LINE
8
DIMENSION
10
1966.38
20
2128.284727
30
0
11
1936.796722
21
2064.843182
31
0
0
LINE
8
DIMENSION
10
1966.38
20
2128.284727
30
0
11
1995.963278
21
2064.843182
31
0
0
LINE
8
DIMENSION
10
1966.38
20
2428.284727
30
0
11
1995.963278
21
2491.726273
31
0
0
LINE
8
DIMENSION
10
1966.38
20
2428.284727
30
0
11
1936.796722
21
2491.726273
31
0
0
TEXT
8
DIMENSION
10
2136.38
20
2278.284727
30
0
40
85
1
0.3
50
90
7
STANDARD
72
1
73
2
11
2136.38
21
2278.284727
31
0
0
LINE
8
DIMENSION
10
1326.38
20
-1571.725273
30
0
11
2416.38
21
-1571.725273
31
0
0
LINE
8
DIMENSION
10
1326.38
20
2428.284727
30
0
11
2416.38
21
2428.284727
31
0
0
LINE
8
DIMENSION
10
2416.38
20
-1571.725273
30
0
11
2416.38
21
2428.284727
31
0
0
LINE
8
DIMENSION
10
2416.38
20
-1571.725273
30
0
11
2386.796722
21
-1635.166818
31
0
0
LINE
8
DIMENSION
10
2416.38
20
-1571.725273
30
0
11
2445.963278
21
-1635.166818
31
0
0
LINE
8
DIMENSION
10
2416.38
20
2428.284727
30
0
11
2445.963278
21
2491.726273
31
0
0
LINE
8
DIMENSION
10
2416.38
20
2428.284727
30
0
11
2386.796722
21
2491.726273
31
0
0
TEXT
8
DIMENSION
10
2586.38
20
428.279727
30
0
40
85
1
TOTAL 4
50
90
7
STANDARD
72
1
73
2
11
2586.38
21
428.279727
31
0
0
ENDSEC
0
EOF
