0
SECTION
2
HEADER
9
$ACADVER
1
AC1009
9
$INSUNITS
70
4
9
$MEASUREMENT
70
1
9
$LUNITS
70
2
9
$LUPREC
70
1
9
$TILEMODE
70
1
9
$EXTMIN
10
-2663.6247
20
-3491.725773
30
0
9
$EXTMAX
10
2663.6247
20
3491.725773
30
0
9
$PEXTMIN
10
-2663.6247
20
-3491.725773
30
0
9
$PEXTMAX
10
2663.6247
20
3491.725773
30
0
9
$LIMMIN
10
-3163.6247
20
-3991.725773
9
$LIMMAX
10
3163.6247
20
3991.725773
9
$PLIMMIN
10
-3163.6247
20
-3991.725773
9
$PLIMMAX
10
3163.6247
20
3991.725773
0
ENDSEC
0
SECTION
2
TABLES
0
TABLE
2
VPORT
70
1
0
VPORT
2
*ACTIVE
70
0
10
0
20
0
11
1
21
1
12
0
22
0
40
7983.451545
41
0.792546
42
50
43
0
44
0
50
0
51
0
71
0
72
100
73
1
74
3
75
0
76
0
77
0
78
0
0
ENDTAB
0
TABLE
2
LTYPE
70
2
0
LTYPE
2
CONTINUOUS
70
0
3
Solid line
72
65
73
0
40
0
0
LTYPE
2
DASHED
70
0
3
Dashed
72
65
73
2
40
240
49
120
74
0
49
-120
74
0
0
ENDTAB
0
TABLE
2
LAYER
70
6
0
LAYER
2
PIPES
70
0
62
5
6
CONTINUOUS
0
LAYER
2
PIPE_ENDS
70
0
62
5
6
CONTINUOUS
0
LAYER
2
DIMENSION
70
0
62
1
6
CONTINUOUS
0
LAYER
2
LEVEL_GUIDE
70
0
62
1
6
DASHED
0
LAYER
2
LEVEL_TEXT
70
0
62
1
6
CONTINUOUS
0
LAYER
2
FRAME
70
0
62
5
6
CONTINUOUS
0
ENDTAB
0
TABLE
2
STYLE
70
1
0
STYLE
2
STANDARD
70
0
40
0
41
1
50
0
71
0
42
100
3
txt
4

0
ENDTAB
0
ENDSEC
0
SECTION
2
BLOCKS
0
BLOCK
8
0
2
$MODEL_SPACE
70
0
10
0
20
0
30
0
3
$MODEL_SPACE
0
ENDBLK
8
0
0
BLOCK
67
1
8
0
2
$PAPER_SPACE
70
0
10
0
20
0
30
0
3
$PAPER_SPACE
0
ENDBLK
67
1
8
0
0
ENDSEC
0
SECTION
2
ENTITIES
0
LINE
8
PIPES
10
-2483.6247
20
-2571.725773
30
0
11
-2483.6247
21
-2271.724773
31
0
0
LINE
8
PIPES
10
-733.6253
20
-2571.725773
30
0
11
-733.6253
21
-2271.724773
31
0
0
LINE
8
PIPES
10
-2483.6247
20
-571.725773
30
0
11
-2483.6247
21
-2271.724773
31
0
0
LINE
8
PIPES
10
-733.6253
20
-2271.724773
30
0
11
-733.6253
21
-571.725773
31
0
0
LINE
8
PIPES
10
-2483.6247
20
3128.284227
30
0
11
-2483.6247
21
1128.274227
31
0
0
LINE
8
PIPES
10
-733.6253
20
1128.274227
30
0
11
-733.6253
21
3128.284227
31
0
0
LINE
8
PIPES
10
-1608.6233
20
3128.284227
30
0
11
-2483.6247
21
3128.284227
31
0
0
LINE
8
PIPES
10
-733.6253
20
3128.284227
30
0
11
-1608.6233
21
3128.284227
31
0
0
LINE
8
PIPES
10
-2483.6247
20
3128.284227
30
0
11
-2483.6247
21
3428.284227
31
0
0
LINE
8
PIPES
10
-1608.6233
20
3128.284227
30
0
11
-1608.6233
21
3428.284227
31
0
0
LINE
8
PIPES
10
-733.6253
20
3128.284227
30
0
11
-733.6253
21
3428.284227
31
0
0
LINE
8
PIPES
10
-1608.6233
20
3428.284227
30
0
11
-2483.6247
21
3428.284227
31
0
0
LINE
8
PIPES
10
-733.6253
20
3428.284227
30
0
11
-1608.6233
21
3428.284227
31
0
0
LINE
8
PIPES
10
-733.6253
20
1128.274227
30
0
11
-1608.6233
21
3428.284227
31
0
0
LINE
8
PIPES
10
-2483.6247
20
1128.274227
30
0
11
-1608.6233
21
3428.284227
31
0
0
LINE
8
PIPES
10
-2483.6247
20
1128.274227
30
0
11
-733.6253
21
1128.274227
31
0
0
LINE
8
PIPES
10
-2483.6247
20
-2271.724773
30
0
11
-733.6253
21
-2271.724773
31
0
0
LINE
8
PIPES
10
1016.3747
20
-2571.725773
30
0
11
1016.3747
21
-2271.724773
31
0
0
LINE
8
PIPES
10
1016.3747
20
-571.725773
30
0
11
1016.3747
21
-2271.724773
31
0
0
LINE
8
PIPES
10
1016.3747
20
3128.284227
30
0
11
1016.3747
21
1128.274227
31
0
0
LINE
8
PIPES
10
141.3847
20
3128.284227
30
0
11
-733.6253
21
3128.284227
31
0
0
LINE
8
PIPES
10
1016.3747
20
3128.284227
30
0
11
141.3847
21
3128.284227
31
0
0
LINE
8
PIPES
10
141.3847
20
3128.284227
30
0
11
141.3847
21
3428.284227
31
0
0
LINE
8
PIPES
10
1016.3747
20
3128.284227
30
0
11
1016.3747
21
3428.284227
31
0
0
LINE
8
PIPES
10
141.3847
20
3428.284227
30
0
11
-733.6253
21
3428.284227
31
0
0
LINE
8
PIPES
10
1016.3747
20
3428.284227
30
0
11
141.3847
21
3428.284227
31
0
0
LINE
8
PIPES
10
1016.3747
20
1128.274227
30
0
11
141.3847
21
3428.284227
31
0
0
LINE
8
PIPES
10
-733.6253
20
1128.274227
30
0
11
141.3847
21
3428.284227
31
0
0
LINE
8
PIPES
10
-733.6253
20
1128.274227
30
0
11
1016.3747
21
1128.274227
31
0
0
LINE
8
PIPES
10
-733.6253
20
-2271.724773
30
0
11
1016.3747
21
-2271.724773
31
0
0
LINE
8
PIPES
10
-2483.6247
20
1128.274227
30
0
11
-2483.6247
21
-571.725773
31
0
0
LINE
8
PIPES
10
-733.6253
20
-571.725773
30
0
11
-733.6253
21
1128.274227
31
0
0
LINE
8
PIPES
10
-2483.6247
20
-571.725773
30
0
11
-733.6253
21
-571.725773
31
0
0
LINE
8
PIPES
10
1016.3747
20
1128.274227
30
0
11
1016.3747
21
-571.725773
31
0
0
LINE
8
PIPES
10
-733.6253
20
-571.725773
30
0
11
1016.3747
21
-571.725773
31
0
0
LINE
8
PIPES
10
-2483.6247
20
3128.284227
30
0
11
-733.6253
21
1128.274227
31
0
0
LINE
8
PIPES
10
-2483.6247
20
-571.725773
30
0
11
-733.6253
21
-2271.724773
31
0
0
LINE
8
PIPES
10
-733.6253
20
-571.725773
30
0
11
-2483.6247
21
-2271.724773
31
0
0
LINE
8
PIPES
10
-733.6253
20
3128.284227
30
0
11
1016.3747
21
1128.274227
31
0
0
LINE
8
PIPES
10
1016.3747
20
1128.274227
30
0
11
-733.6253
21
-571.725773
31
0
0
LINE
8
PIPES
10
-733.6253
20
1128.274227
30
0
11
1016.3747
21
-571.725773
31
0
0
CIRCLE
8
PIPE_ENDS
10
-733.6253
20
-2271.725773
30
0
40
25
0
CIRCLE
8
PIPE_ENDS
10
-2483.6253
20
-2271.725773
30
0
40
25
0
CIRCLE
8
PIPE_ENDS
10
-733.6253
20
1128.274227
30
0
40
25
0
CIRCLE
8
PIPE_ENDS
10
-2483.6253
20
1128.274227
30
0
40
25
0
CIRCLE
8
PIPE_ENDS
10
-733.6253
20
3128.274227
30
0
40
25
0
CIRCLE
8
PIPE_ENDS
10
-2483.6253
20
3128.274227
30
0
40
25
0
CIRCLE
8
PIPE_ENDS
10
-1608.6253
20
3128.274227
30
0
40
32
0
CIRCLE
8
PIPE_ENDS
10
-733.6253
20
3428.274227
30
0
40
25
0
CIRCLE
8
PIPE_ENDS
10
-2483.6253
20
3428.274227
30
0
40
25
0
CIRCLE
8
PIPE_ENDS
10
-1608.6253
20
3428.274227
30
0
40
32
0
CIRCLE
8
PIPE_ENDS
10
1016.3747
20
-2271.725773
30
0
40
25
0
CIRCLE
8
PIPE_ENDS
10
1016.3747
20
1128.274227
30
0
40
25
0
CIRCLE
8
PIPE_ENDS
10
1016.3747
20
3128.274227
30
0
40
25
0
CIRCLE
8
PIPE_ENDS
10
141.3747
20
3128.274227
30
0
40
32
0
CIRCLE
8
PIPE_ENDS
10
1016.3747
20
3428.274227
30
0
40
25
0
CIRCLE
8
PIPE_ENDS
10
141.3747
20
3428.274227
30
0
40
32
0
CIRCLE
8
PIPE_ENDS
10
1016.3747
20
-571.725773
30
0
40
25
0
CIRCLE
8
PIPE_ENDS
10
-733.6253
20
-571.725773
30
0
40
25
0
CIRCLE
8
PIPE_ENDS
10
-2483.6253
20
-571.725773
30
0
40
25
0
LINE
8
LEVEL_GUIDE
6
DASHED
10
-2663.6247
20
-2571.725773
30
0
11
1196.3747
21
-2571.725773
31
0
0
LINE
8
LEVEL_GUIDE
6
DASHED
10
-2663.6247
20
-2271.725773
30
0
11
1196.3747
21
-2271.725773
31
0
0
LINE
8
LEVEL_GUIDE
6
DASHED
10
-2663.6247
20
-571.725773
30
0
11
1196.3747
21
-571.725773
31
0
0
LINE
8
LEVEL_GUIDE
6
DASHED
10
-2663.6247
20
1128.274227
30
0
11
1196.3747
21
1128.274227
31
0
0
LINE
8
LEVEL_GUIDE
6
DASHED
10
-2663.6247
20
3128.284227
30
0
11
1196.3747
21
3128.284227
31
0
0
LINE
8
LEVEL_GUIDE
6
DASHED
10
-2663.6247
20
3428.284227
30
0
11
1196.3747
21
3428.284227
31
0
0
LINE
8
DIMENSION
10
-2483.6253
20
-2631.725773
30
0
11
-2483.6253
21
-2951.725773
31
0
0
LINE
8
DIMENSION
10
-1608.6253
20
-2631.725773
30
0
11
-1608.6253
21
-2951.725773
31
0
0
LINE
8
DIMENSION
10
-2483.6253
20
-2951.725773
30
0
11
-1608.6253
21
-2951.725773
31
0
0
LINE
8
DIMENSION
10
-2483.6253
20
-2951.725773
30
0
11
-2547.066845
21
-2922.142494
31
0
0
LINE
8
DIMENSION
10
-2483.6253
20
-2951.725773
30
0
11
-2547.066845
21
-2981.309051
31
0
0
LINE
8
DIMENSION
10
-1608.6253
20
-2951.725773
30
0
11
-1545.183755
21
-2981.309051
31
0
0
LINE
8
DIMENSION
10
-1608.6253
20
-2951.725773
30
0
11
-1545.183755
21
-2922.142494
31
0
0
TEXT
8
DIMENSION
10
-2046.1253
20
-3121.725773
30
0
40
85
1
0.875
50
0
7
STANDARD
72
1
73
2
11
-2046.1253
21
-3121.725773
31
0
0
LINE
8
DIMENSION
10
-1608.6253
20
-2631.725773
30
0
11
-1608.6253
21
-2951.725773
31
0
0
LINE
8
DIMENSION
10
-733.6253
20
-2631.725773
30
0
11
-733.6253
21
-2951.725773
31
0
0
LINE
8
DIMENSION
10
-1608.6253
20
-2951.725773
30
0
11
-733.6253
21
-2951.725773
31
0
0
LINE
8
DIMENSION
10
-1608.6253
20
-2951.725773
30
0
11
-1672.066845
21
-2922.142494
31
0
0
LINE
8
DIMENSION
10
-1608.6253
20
-2951.725773
30
0
11
-1672.066845
21
-2981.309051
31
0
0
LINE
8
DIMENSION
10
-733.6253
20
-2951.725773
30
0
11
-670.183755
21
-2981.309051
31
0
0
LINE
8
DIMENSION
10
-733.6253
20
-2951.725773
30
0
11
-670.183755
21
-2922.142494
31
0
0
TEXT
8
DIMENSION
10
-1171.1253
20
-3121.725773
30
0
40
85
1
0.875
50
0
7
STANDARD
72
1
73
2
11
-1171.1253
21
-3121.725773
31
0
0
LINE
8
DIMENSION
10
-733.6253
20
-2631.725773
30
0
11
-733.6253
21
-2951.725773
31
0
0
LINE
8
DIMENSION
10
141.3847
20
-2631.725773
30
0
11
141.3847
21
-2951.725773
31
0
0
LINE
8
DIMENSION
10
-733.6253
20
-2951.725773
30
0
11
141.3847
21
-2951.725773
31
0
0
LINE
8
DIMENSION
10
-733.6253
20
-2951.725773
30
0
11
-797.066845
21
-2922.142494
31
0
0
LINE
8
DIMENSION
10
-733.6253
20
-2951.725773
30
0
11
-797.066845
21
-2981.309051
31
0
0
LINE
8
DIMENSION
10
141.3847
20
-2951.725773
30
0
11
204.826245
21
-2981.309051
31
0
0
LINE
8
DIMENSION
10
141.3847
20
-2951.725773
30
0
11
204.826245
21
-2922.142494
31
0
0
TEXT
8
DIMENSION
10
-296.1203
20
-3121.725773
30
0
40
85
1
0.875
50
0
7
STANDARD
72
1
73
2
11
-296.1203
21
-3121.725773
31
0
0
LINE
8
DIMENSION
10
141.3847
20
-2631.725773
30
0
11
141.3847
21
-2951.725773
31
0
0
LINE
8
DIMENSION
10
1016.3747
20
-2631.725773
30
0
11
1016.3747
21
-2951.725773
31
0
0
LINE
8
DIMENSION
10
141.3847
20
-2951.725773
30
0
11
1016.3747
21
-2951.725773
31
0
0
LINE
8
DIMENSION
10
141.3847
20
-2951.725773
30
0
11
77.943155
21
-2922.142494
31
0
0
LINE
8
DIMENSION
10
141.3847
20
-2951.725773
30
0
11
77.943155
21
-2981.309051
31
0
0
LINE
8
DIMENSION
10
1016.3747
20
-2951.725773
30
0
11
1079.816245
21
-2981.309051
31
0
0
LINE
8
DIMENSION
10
1016.3747
20
-2951.725773
30
0
11
1079.816245
21
-2922.142494
31
0
0
TEXT
8
DIMENSION
10
578.8797
20
-3121.725773
30
0
40
85
1
0.875
50
0
7
STANDARD
72
1
73
2
11
578.8797
21
-3121.725773
31
0
0
LINE
8
DIMENSION
10
-2483.6253
20
-2631.725773
30
0
11
-2483.6253
21
-3321.725773
31
0
0
LINE
8
DIMENSION
10
1016.3747
20
-2631.725773
30
0
11
1016.3747
21
-3321.725773
31
0
0
LINE
8
DIMENSION
10
-2483.6253
20
-3321.725773
30
0
11
1016.3747
21
-3321.725773
31
0
0
LINE
8
DIMENSION
10
-2483.6253
20
-3321.725773
30
0
11
-2547.066845
21
-3292.142494
31
0
0
LINE
8
DIMENSION
10
-2483.6253
20
-3321.725773
30
0
11
-2547.066845
21
-3351.309051
31
0
0
LINE
8
DIMENSION
10
1016.3747
20
-3321.725773
30
0
11
1079.816245
21
-3351.309051
31
0
0
LINE
8
DIMENSION
10
1016.3747
20
-3321.725773
30
0
11
1079.816245
21
-3292.142494
31
0
0
TEXT
8
DIMENSION
10
-733.6253
20
-3491.725773
30
0
40
85
1
TOTAL 3.5
50
0
7
STANDARD
72
1
73
2
11
-733.6253
21
-3491.725773
31
0
0
LINE
8
DIMENSION
10
1076.3747
20
-2571.725773
30
0
11
1716.3747
21
-2571.725773
31
0
0
LINE
8
DIMENSION
10
1076.3747
20
-2271.725773
30
0
11
1716.3747
21
-2271.725773
31
0
0
LINE
8
DIMENSION
10
1716.3747
20
-2571.725773
30
0
11
1716.3747
21
-2271.725773
31
0
0
LINE
8
DIMENSION
10
1716.3747
20
-2571.725773
30
0
11
1686.791422
21
-2635.167318
31
0
0
LINE
8
DIMENSION
10
1716.3747
20
-2571.725773
30
0
11
1745.957978
21
-2635.167318
31
0
0
LINE
8
DIMENSION
10
1716.3747
20
-2271.725773
30
0
11
1745.957978
21
-2208.284227
31
0
0
LINE
8
DIMENSION
10
1716.3747
20
-2271.725773
30
0
11
1686.791422
21
-2208.284227
31
0
0
TEXT
8
DIMENSION
10
1886.3747
20
-2421.725773
30
0
40
85
1
0.3
50
90
7
STANDARD
72
1
73
2
11
1886.3747
21
-2421.725773
31
0
0
LINE
8
DIMENSION
10
1076.3747
20
-2271.725773
30
0
11
1716.3747
21
-2271.725773
31
0
0
LINE
8
DIMENSION
10
1076.3747
20
-571.725773
30
0
11
1716.3747
21
-571.725773
31
0
0
LINE
8
DIMENSION
10
1716.3747
20
-2271.725773
30
0
11
1716.3747
21
-571.725773
31
0
0
LINE
8
DIMENSION
10
1716.3747
20
-2271.725773
30
0
11
1686.791422
21
-2335.167318
31
0
0
LINE
8
DIMENSION
10
1716.3747
20
-2271.725773
30
0
11
1745.957978
21
-2335.167318
31
0
0
LINE
8
DIMENSION
10
1716.3747
20
-571.725773
30
0
11
1745.957978
21
-508.284227
31
0
0
LINE
8
DIMENSION
10
1716.3747
20
-571.725773
30
0
11
1686.791422
21
-508.284227
31
0
0
TEXT
8
DIMENSION
10
1886.3747
20
-1421.725773
30
0
40
85
1
1.7
50
90
7
STANDARD
72
1
73
2
11
1886.3747
21
-1421.725773
31
0
0
LINE
8
DIMENSION
10
1076.3747
20
-571.725773
30
0
11
1716.3747
21
-571.725773
31
0
0
LINE
8
DIMENSION
10
1076.3747
20
1128.274227
30
0
11
1716.3747
21
1128.274227
31
0
0
LINE
8
DIMENSION
10
1716.3747
20
-571.725773
30
0
11
1716.3747
21
1128.274227
31
0
0
LINE
8
DIMENSION
10
1716.3747
20
-571.725773
30
0
11
1686.791422
21
-635.167318
31
0
0
LINE
8
DIMENSION
10
1716.3747
20
-571.725773
30
0
11
1745.957978
21
-635.167318
31
0
0
LINE
8
DIMENSION
10
1716.3747
20
1128.274227
30
0
11
1745.957978
21
1191.715773
31
0
0
LINE
8
DIMENSION
10
1716.3747
20
1128.274227
30
0
11
1686.791422
21
1191.715773
31
0
0
TEXT
8
DIMENSION
10
1886.3747
20
278.274227
30
0
40
85
1
1.7
50
90
7
STANDARD
72
1
73
2
11
1886.3747
21
278.274227
31
0
0
LINE
8
DIMENSION
10
1076.3747
20
1128.274227
30
0
11
1716.3747
21
1128.274227
31
0
0
LINE
8
DIMENSION
10
1076.3747
20
3128.284227
30
0
11
1716.3747
21
3128.284227
31
0
0
LINE
8
DIMENSION
10
1716.3747
20
1128.274227
30
0
11
1716.3747
21
3128.284227
31
0
0
LINE
8
DIMENSION
10
1716.3747
20
1128.274227
30
0
11
1686.791422
21
1064.832682
31
0
0
LINE
8
DIMENSION
10
1716.3747
20
1128.274227
30
0
11
1745.957978
21
1064.832682
31
0
0
LINE
8
DIMENSION
10
1716.3747
20
3128.284227
30
0
11
1745.957978
21
3191.725773
31
0
0
LINE
8
DIMENSION
10
1716.3747
20
3128.284227
30
0
11
1686.791422
21
3191.725773
31
0
0
TEXT
8
DIMENSION
10
1886.3747
20
2128.279227
30
0
40
85
1
2
50
90
7
STANDARD
72
1
73
2
11
1886.3747
21
2128.279227
31
0
0
LINE
8
DIMENSION
10
1076.3747
20
3128.284227
30
0
11
1716.3747
21
3128.284227
31
0
0
LINE
8
DIMENSION
10
1076.3747
20
3428.284227
30
0
11
1716.3747
21
3428.284227
31
0
0
LINE
8
DIMENSION
10
1716.3747
20
3128.284227
30
0
11
1716.3747
21
3428.284227
31
0
0
LINE
8
DIMENSION
10
1716.3747
20
3128.284227
30
0
11
1686.791422
21
3064.842682
31
0
0
LINE
8
DIMENSION
10
1716.3747
20
3128.284227
30
0
11
1745.957978
21
3064.842682
31
0
0
LINE
8
DIMENSION
10
1716.3747
20
3428.284227
30
0
11
1745.957978
21
3491.725773
31
0
0
LINE
8
DIMENSION
10
1716.3747
20
3428.284227
30
0
11
1686.791422
21
3491.725773
31
0
0
TEXT
8
DIMENSION
10
1886.3747
20
3278.284227
30
0
40
85
1
0.3
50
90
7
STANDARD
72
1
73
2
11
1886.3747
21
3278.284227
31
0
0
LINE
8
DIMENSION
10
1076.3747
20
-2571.725773
30
0
11
2166.3747
21
-2571.725773
31
0
0
LINE
8
DIMENSION
10
1076.3747
20
3428.284227
30
0
11
2166.3747
21
3428.284227
31
0
0
LINE
8
DIMENSION
10
2166.3747
20
-2571.725773
30
0
11
2166.3747
21
3428.284227
31
0
0
LINE
8
DIMENSION
10
2166.3747
20
-2571.725773
30
0
11
2136.791422
21
-2635.167318
31
0
0
LINE
8
DIMENSION
10
2166.3747
20
-2571.725773
30
0
11
2195.957978
21
-2635.167318
31
0
0
LINE
8
DIMENSION
10
2166.3747
20
3428.284227
30
0
11
2195.957978
21
3491.725773
31
0
0
LINE
8
DIMENSION
10
2166.3747
20
3428.284227
30
0
11
2136.791422
21
3491.725773
31
0
0
TEXT
8
DIMENSION
10
2336.3747
20
428.279227
30
0
40
85
1
TOTAL 6
50
90
7
STANDARD
72
1
73
2
11
2336.3747
21
428.279227
31
0
0
ENDSEC
0
EOF
