0
SECTION
2
HEADER
9
$ACADVER
1
AC1009
9
$INSUNITS
70
4
9
$MEASUREMENT
70
1
9
$LUNITS
70
2
9
$LUPREC
70
1
9
$TILEMODE
70
1
9
$EXTMIN
10
-3157.467228
20
-4325.004947
30
0
9
$EXTMAX
10
3157.467228
20
4325.004947
30
0
9
$PEXTMIN
10
-3157.467228
20
-4325.004947
30
0
9
$PEXTMAX
10
3157.467228
20
4325.004947
30
0
9
$LIMMIN
10
-3657.467228
20
-4825.004947
9
$LIMMAX
10
3657.467228
20
4825.004947
9
$PLIMMIN
10
-3657.467228
20
-4825.004947
9
$PLIMMAX
10
3657.467228
20
4825.004947
0
ENDSEC
0
SECTION
2
TABLES
0
TABLE
2
VPORT
70
1
0
VPORT
2
*ACTIVE
70
0
10
0
20
0
11
1
21
1
12
0
22
0
40
9650.009894
41
0.758024
42
50
43
0
44
0
50
0
51
0
71
0
72
100
73
1
74
3
75
0
76
0
77
0
78
0
0
ENDTAB
0
TABLE
2
LTYPE
70
2
0
LTYPE
2
CONTINUOUS
70
0
3
Solid line
72
65
73
0
40
0
0
LTYPE
2
DASHED
70
0
3
Dashed
72
65
73
2
40
240
49
120
74
0
49
-120
74
0
0
ENDTAB
0
TABLE
2
LAYER
70
6
0
LAYER
2
PIPES
70
0
62
5
6
CONTINUOUS
0
LAYER
2
PIPE_ENDS
70
0
62
5
6
CONTINUOUS
0
LAYER
2
DIMENSION
70
0
62
1
6
CONTINUOUS
0
LAYER
2
LEVEL_GUIDE
70
0
62
1
6
DASHED
0
LAYER
2
LEVEL_TEXT
70
0
62
1
6
CONTINUOUS
0
LAYER
2
FRAME
70
0
62
5
6
CONTINUOUS
0
ENDTAB
0
TABLE
2
STYLE
70
1
0
STYLE
2
STANDARD
70
0
40
0
41
1
50
0
71
0
42
100
3
txt
4

0
ENDTAB
0
ENDSEC
0
SECTION
2
BLOCKS
0
BLOCK
8
0
2
$MODEL_SPACE
70
0
10
0
20
0
30
0
3
$MODEL_SPACE
0
ENDBLK
8
0
0
BLOCK
67
1
8
0
2
$PAPER_SPACE
70
0
10
0
20
0
30
0
3
$PAPER_SPACE
0
ENDBLK
67
1
8
0
0
ENDSEC
0
SECTION
2
ENTITIES
0
LINE
8
PIPES
10
-1598.621166
20
-4325.004947
30
0
11
-1598.621166
21
-4025.003947
31
0
0
LINE
8
PIPES
10
-83.077229
20
-3450.005247
30
0
11
-83.077229
21
-3150.004247
31
0
0
LINE
8
PIPES
10
-1641.923291
20
-2550.005053
30
0
11
-1641.923291
21
-2250.004053
31
0
0
LINE
8
PIPES
10
-3157.467228
20
-3425.004753
30
0
11
-3157.467228
21
-3125.003753
31
0
0
LINE
8
PIPES
10
-83.077229
20
-3150.004247
30
0
11
-1641.923291
21
-2250.004053
31
0
0
LINE
8
PIPES
10
-3157.467228
20
-3125.003753
30
0
11
-1598.621166
21
-4025.003947
31
0
0
LINE
8
PIPES
10
-1598.621166
20
-4025.003947
30
0
11
-1598.621166
21
-2325.004947
31
0
0
LINE
8
PIPES
10
-83.077229
20
-3150.004247
30
0
11
-83.077229
21
-1450.005247
31
0
0
LINE
8
PIPES
10
-1641.923291
20
-2250.004053
30
0
11
-1641.923291
21
-550.005053
31
0
0
LINE
8
PIPES
10
-3157.467228
20
-3125.003753
30
0
11
-3157.467228
21
-1425.004753
31
0
0
LINE
8
PIPES
10
-83.077229
20
249.994753
30
0
11
-1641.923291
21
1149.994947
31
0
0
LINE
8
PIPES
10
-3157.467228
20
274.995247
30
0
11
-1598.621166
21
-625.004947
31
0
0
LINE
8
PIPES
10
-1598.621166
20
-625.004947
30
0
11
-1598.621166
21
1375.005053
31
0
0
LINE
8
PIPES
10
-83.077229
20
249.994753
30
0
11
-83.077229
21
2250.004753
31
0
0
LINE
8
PIPES
10
-1641.923291
20
1149.994947
30
0
11
-1641.923291
21
3150.004947
31
0
0
LINE
8
PIPES
10
-3157.467228
20
274.995247
30
0
11
-3157.467228
21
2275.005247
31
0
0
LINE
8
PIPES
10
-1598.621166
20
1375.005053
30
0
11
-840.848228
21
1812.506044
31
0
0
LINE
8
PIPES
10
-840.848228
20
1812.506044
30
0
11
-83.077229
21
2250.004753
31
0
0
LINE
8
PIPES
10
-83.077229
20
2250.004753
30
0
11
-1641.923291
21
3150.004947
31
0
0
LINE
8
PIPES
10
-1641.923291
20
3150.004947
30
0
11
-2399.693787
21
2712.505947
31
0
0
LINE
8
PIPES
10
-2399.693787
20
2712.505947
30
0
11
-3157.467228
21
2275.005247
31
0
0
LINE
8
PIPES
10
-3157.467228
20
2275.005247
30
0
11
-1598.621166
21
1375.005053
31
0
0
LINE
8
PIPES
10
-1620.272656
20
2262.506947
30
0
11
-1880.078545
21
2412.505947
31
0
0
LINE
8
PIPES
10
-1598.621166
20
1375.005053
30
0
11
-1598.621166
21
1675.005053
31
0
0
LINE
8
PIPES
10
-840.848228
20
1812.506044
30
0
11
-840.848228
21
2112.506044
31
0
0
LINE
8
PIPES
10
-83.077229
20
2250.004753
30
0
11
-83.077229
21
2550.004753
31
0
0
LINE
8
PIPES
10
-1641.923291
20
3150.004947
30
0
11
-1641.923291
21
3450.004947
31
0
0
LINE
8
PIPES
10
-2399.693787
20
2712.505947
30
0
11
-2399.693787
21
3012.505947
31
0
0
LINE
8
PIPES
10
-3157.467228
20
2275.005247
30
0
11
-3157.467228
21
2575.005247
31
0
0
LINE
8
PIPES
10
-1620.272656
20
2262.506947
30
0
11
-1620.272656
21
2562.506947
31
0
0
LINE
8
PIPES
10
-1598.621166
20
1675.005053
30
0
11
-840.848228
21
2112.506044
31
0
0
LINE
8
PIPES
10
-840.848228
20
2112.506044
30
0
11
-83.077229
21
2550.004753
31
0
0
LINE
8
PIPES
10
-83.077229
20
2550.004753
30
0
11
-1641.923291
21
3450.004947
31
0
0
LINE
8
PIPES
10
-1641.923291
20
3450.004947
30
0
11
-2399.693787
21
3012.505947
31
0
0
LINE
8
PIPES
10
-2399.693787
20
3012.505947
30
0
11
-3157.467228
21
2575.005247
31
0
0
LINE
8
PIPES
10
-3157.467228
20
2575.005247
30
0
11
-1598.621166
21
1675.005053
31
0
0
LINE
8
PIPES
10
-1620.272656
20
2562.506947
30
0
11
-1880.078545
21
2712.505947
31
0
0
LINE
8
PIPES
10
-2139.886166
20
2562.505947
30
0
11
-2399.693787
21
2712.505947
31
0
0
LINE
8
PIPES
10
-2139.886166
20
2862.505947
30
0
11
-2399.693787
21
3012.505947
31
0
0
LINE
8
PIPES
10
-2139.886166
20
2562.505947
30
0
11
-2139.886166
21
2862.505947
31
0
0
LINE
8
PIPES
10
-1880.078545
20
2412.505947
30
0
11
-2139.886166
21
2562.505947
31
0
0
LINE
8
PIPES
10
-1880.078545
20
2712.505947
30
0
11
-2009.982356
21
2787.505947
31
0
0
LINE
8
PIPES
10
-1880.078545
20
2412.505947
30
0
11
-1880.078545
21
2712.505947
31
0
0
LINE
8
PIPES
10
-1360.464169
20
2112.506447
30
0
11
-1620.272656
21
2262.506947
31
0
0
LINE
8
PIPES
10
-1360.464169
20
2412.506447
30
0
11
-1620.272656
21
2562.506947
31
0
0
LINE
8
PIPES
10
-1360.464169
20
2112.506447
30
0
11
-1360.464169
21
2412.506447
31
0
0
LINE
8
PIPES
10
-1100.656548
20
1962.506447
30
0
11
-1360.464169
21
2112.506447
31
0
0
LINE
8
PIPES
10
-1100.656548
20
2262.506447
30
0
11
-1230.560358
21
2337.506447
31
0
0
LINE
8
PIPES
10
-1100.656548
20
1962.506447
30
0
11
-1100.656548
21
2262.506447
31
0
0
LINE
8
PIPES
10
-2009.982356
20
2787.505947
30
0
11
-2139.886166
21
2862.505947
31
0
0
LINE
8
PIPES
10
-1230.560358
20
2337.506447
30
0
11
-1360.464169
21
2412.506447
31
0
0
LINE
8
PIPES
10
-1641.923291
20
1149.994947
30
0
11
-2009.982356
21
2787.505947
31
0
0
LINE
8
PIPES
10
-1598.621166
20
-625.004947
30
0
11
-1230.560358
21
2337.506447
31
0
0
LINE
8
PIPES
10
-1598.621166
20
-625.004947
30
0
11
-83.077229
21
249.994753
31
0
0
LINE
8
PIPES
10
-1598.621166
20
-4025.003947
30
0
11
-83.077229
21
-3150.004247
31
0
0
LINE
8
PIPES
10
-840.848228
20
2112.506044
30
0
11
-1100.656548
21
2262.506447
31
0
0
LINE
8
PIPES
10
-840.848228
20
1812.506044
30
0
11
-1100.656548
21
1962.506447
31
0
0
LINE
8
PIPES
10
-3157.467228
20
274.995247
30
0
11
-1641.923291
21
1149.994947
31
0
0
LINE
8
PIPES
10
-3157.467228
20
-3125.003753
30
0
11
-1641.923291
21
-2250.004053
31
0
0
LINE
8
PIPES
10
1432.467228
20
-2575.005247
30
0
11
1432.467228
21
-2275.004247
31
0
0
LINE
8
PIPES
10
-126.378834
20
-1675.005053
30
0
11
-126.378834
21
-1375.004053
31
0
0
LINE
8
PIPES
10
1432.467228
20
-2275.004247
30
0
11
-126.378834
21
-1375.004053
31
0
0
LINE
8
PIPES
10
1432.467228
20
-2275.004247
30
0
11
1432.467228
21
-575.005247
31
0
0
LINE
8
PIPES
10
-126.378834
20
-1375.004053
30
0
11
-126.378834
21
324.994947
31
0
0
LINE
8
PIPES
10
1432.467228
20
1124.994753
30
0
11
-126.378834
21
2024.994947
31
0
0
LINE
8
PIPES
10
1432.467228
20
1124.994753
30
0
11
1432.467228
21
3125.004753
31
0
0
LINE
8
PIPES
10
-126.378834
20
2024.994947
30
0
11
-126.378834
21
4025.004947
31
0
0
LINE
8
PIPES
10
-83.077229
20
2250.004753
30
0
11
674.703157
21
2687.510044
31
0
0
LINE
8
PIPES
10
674.703157
20
2687.510044
30
0
11
1432.467228
21
3125.004753
31
0
0
LINE
8
PIPES
10
1432.467228
20
3125.004753
30
0
11
-126.378834
21
4025.004947
31
0
0
LINE
8
PIPES
10
-126.378834
20
4025.004947
30
0
11
-884.142402
21
3587.509947
31
0
0
LINE
8
PIPES
10
-884.142402
20
3587.509947
30
0
11
-1641.923291
21
3150.004947
31
0
0
LINE
8
PIPES
10
-104.721271
20
3137.510947
30
0
11
-364.52716
21
3287.509947
31
0
0
LINE
8
PIPES
10
674.703157
20
2687.510044
30
0
11
674.703157
21
2987.510044
31
0
0
LINE
8
PIPES
10
1432.467228
20
3125.004753
30
0
11
1432.467228
21
3425.004753
31
0
0
LINE
8
PIPES
10
-126.378834
20
4025.004947
30
0
11
-126.378834
21
4325.004947
31
0
0
LINE
8
PIPES
10
-884.142402
20
3587.509947
30
0
11
-884.142402
21
3887.509947
31
0
0
LINE
8
PIPES
10
-104.721271
20
3137.510947
30
0
11
-104.721271
21
3437.510947
31
0
0
LINE
8
PIPES
10
-83.077229
20
2550.004753
30
0
11
674.703157
21
2987.510044
31
0
0
LINE
8
PIPES
10
674.703157
20
2987.510044
30
0
11
1432.467228
21
3425.004753
31
0
0
LINE
8
PIPES
10
1432.467228
20
3425.004753
30
0
11
-126.378834
21
4325.004947
31
0
0
LINE
8
PIPES
10
-126.378834
20
4325.004947
30
0
11
-884.142402
21
3887.509947
31
0
0
LINE
8
PIPES
10
-884.142402
20
3887.509947
30
0
11
-1641.923291
21
3450.004947
31
0
0
LINE
8
PIPES
10
-104.721271
20
3437.510947
30
0
11
-364.52716
21
3587.509947
31
0
0
LINE
8
PIPES
10
-624.334781
20
3437.509947
30
0
11
-884.142402
21
3587.509947
31
0
0
LINE
8
PIPES
10
-624.334781
20
3737.509947
30
0
11
-884.142402
21
3887.509947
31
0
0
LINE
8
PIPES
10
-624.334781
20
3437.509947
30
0
11
-624.334781
21
3737.509947
31
0
0
LINE
8
PIPES
10
-364.52716
20
3287.509947
30
0
11
-624.334781
21
3437.509947
31
0
0
LINE
8
PIPES
10
-364.52716
20
3587.509947
30
0
11
-494.430971
21
3662.509947
31
0
0
LINE
8
PIPES
10
-364.52716
20
3287.509947
30
0
11
-364.52716
21
3587.509947
31
0
0
LINE
8
PIPES
10
155.087216
20
2987.510447
30
0
11
-104.721271
21
3137.510947
31
0
0
LINE
8
PIPES
10
155.087216
20
3287.510447
30
0
11
-104.721271
21
3437.510947
31
0
0
LINE
8
PIPES
10
155.087216
20
2987.510447
30
0
11
155.087216
21
3287.510447
31
0
0
LINE
8
PIPES
10
414.894837
20
2837.510447
30
0
11
155.087216
21
2987.510447
31
0
0
LINE
8
PIPES
10
414.894837
20
3137.510447
30
0
11
284.991027
21
3212.510447
31
0
0
LINE
8
PIPES
10
414.894837
20
2837.510447
30
0
11
414.894837
21
3137.510447
31
0
0
LINE
8
PIPES
10
-494.430971
20
3662.509947
30
0
11
-624.334781
21
3737.509947
31
0
0
LINE
8
PIPES
10
284.991027
20
3212.510447
30
0
11
155.087216
21
3287.510447
31
0
0
LINE
8
PIPES
10
-126.378834
20
2024.994947
30
0
11
-494.430971
21
3662.509947
31
0
0
LINE
8
PIPES
10
-83.077229
20
249.994753
30
0
11
284.991027
21
3212.510447
31
0
0
LINE
8
PIPES
10
-83.077229
20
249.994753
30
0
11
1432.467228
21
1124.994753
31
0
0
LINE
8
PIPES
10
-83.077229
20
-3150.004247
30
0
11
1432.467228
21
-2275.004247
31
0
0
LINE
8
PIPES
10
674.703157
20
2987.510044
30
0
11
414.894837
21
3137.510447
31
0
0
LINE
8
PIPES
10
674.703157
20
2687.510044
30
0
11
414.894837
21
2837.510447
31
0
0
LINE
8
PIPES
10
-1641.923291
20
1149.994947
30
0
11
-126.378834
21
2024.994947
31
0
0
LINE
8
PIPES
10
-1641.923291
20
-2250.004053
30
0
11
-126.378834
21
-1375.004053
31
0
0
LINE
8
PIPES
10
-2399.693787
20
3012.505947
30
0
11
-2659.501408
21
3162.505947
31
0
0
LINE
8
PIPES
10
-2399.693787
20
2712.505947
30
0
11
-2659.501408
21
2862.505947
31
0
0
LINE
8
PIPES
10
-884.142402
20
3887.509947
30
0
11
-1143.950024
21
4037.509947
31
0
0
LINE
8
PIPES
10
-884.142402
20
3587.509947
30
0
11
-1143.950024
21
3737.509947
31
0
0
LINE
8
PIPES
10
-2659.501408
20
2862.505947
30
0
11
-2659.501408
21
3162.505947
31
0
0
LINE
8
PIPES
10
-1143.950024
20
3737.509947
30
0
11
-1143.950024
21
4037.509947
31
0
0
LINE
8
PIPES
10
-2659.501408
20
3162.505947
30
0
11
-2919.30903
21
3312.505947
31
0
0
LINE
8
PIPES
10
-2659.501408
20
2862.505947
30
0
11
-2919.30903
21
3012.505947
31
0
0
LINE
8
PIPES
10
-1143.950024
20
4037.509947
30
0
11
-1403.757645
21
4187.509947
31
0
0
LINE
8
PIPES
10
-1143.950024
20
3737.509947
30
0
11
-1403.757645
21
3887.509947
31
0
0
LINE
8
PIPES
10
-2919.30903
20
3012.505947
30
0
11
-2919.30903
21
3312.505947
31
0
0
LINE
8
PIPES
10
-1403.757645
20
3887.509947
30
0
11
-1403.757645
21
4187.509947
31
0
0
LINE
8
PIPES
10
-3157.467228
20
-1425.004753
30
0
11
-3157.467228
21
274.995247
31
0
0
LINE
8
PIPES
10
-1641.923291
20
-550.005053
30
0
11
-1641.923291
21
1149.994947
31
0
0
LINE
8
PIPES
10
-1641.923291
20
-550.005053
30
0
11
-3157.467228
21
-1425.004753
31
0
0
LINE
8
PIPES
10
-126.378834
20
324.994947
30
0
11
-126.378834
21
2024.994947
31
0
0
LINE
8
PIPES
10
-126.378834
20
324.994947
30
0
11
-1641.923291
21
-550.005053
31
0
0
LINE
8
PIPES
10
1432.467228
20
-575.005247
30
0
11
1432.467228
21
1124.994753
31
0
0
LINE
8
PIPES
10
1432.467228
20
-575.005247
30
0
11
-126.378834
21
324.994947
31
0
0
LINE
8
PIPES
10
-83.077229
20
-1450.005247
30
0
11
-83.077229
21
249.994753
31
0
0
LINE
8
PIPES
10
-83.077229
20
-1450.005247
30
0
11
1432.467228
21
-575.005247
31
0
0
LINE
8
PIPES
10
-83.077229
20
-1450.005247
30
0
11
-1641.923291
21
-550.005053
31
0
0
LINE
8
PIPES
10
-1598.621166
20
-2325.004947
30
0
11
-1598.621166
21
-625.004947
31
0
0
LINE
8
PIPES
10
-1598.621166
20
-2325.004947
30
0
11
-83.077229
21
-1450.005247
31
0
0
LINE
8
PIPES
10
-1598.621166
20
-2325.004947
30
0
11
-3157.467228
21
-1425.004753
31
0
0
LINE
8
PIPES
10
-1598.621166
20
1375.005053
30
0
11
-83.077229
21
249.994753
31
0
0
LINE
8
PIPES
10
-1598.621166
20
-2325.004947
30
0
11
-83.077229
21
-3150.004247
31
0
0
LINE
8
PIPES
10
-1641.923291
20
-550.005053
30
0
11
-3157.467228
21
-3125.003753
31
0
0
LINE
8
PIPES
10
-83.077229
20
2250.004753
30
0
11
1432.467228
21
1124.994753
31
0
0
LINE
8
PIPES
10
1432.467228
20
1124.994753
30
0
11
-83.077229
21
-1450.005247
31
0
0
LINE
8
PIPES
10
-1641.923291
20
1149.994947
30
0
11
-126.378834
21
324.994947
31
0
0
LINE
8
PIPES
10
-3157.467228
20
2275.005247
30
0
11
-1598.621166
21
-625.004947
31
0
0
LINE
8
PIPES
10
-3157.467228
20
-1425.004753
30
0
11
-1598.621166
21
-4025.003947
31
0
0
LINE
8
PIPES
10
1432.467228
20
3125.004753
30
0
11
-126.378834
21
2024.994947
31
0
0
LINE
8
PIPES
10
1432.467228
20
-575.005247
30
0
11
-126.378834
21
-1375.004053
31
0
0
LINE
8
PIPES
10
-1598.621166
20
-625.004947
30
0
11
-3157.467228
21
-1425.004753
31
0
0
LINE
8
PIPES
10
-126.378834
20
2024.994947
30
0
11
1432.467228
21
-575.005247
31
0
0
CIRCLE
8
DIMENSION
62
6
10
-126.378834
20
324.994947
30
0
40
85
0
CIRCLE
8
DIMENSION
62
6
10
-1598.621166
20
-2325.004947
30
0
40
85
0
LINE
8
DIMENSION
62
6
10
-126.378834
20
324.994947
30
0
11
1982.467228
21
324.994947
31
0
0
LINE
8
DIMENSION
62
6
10
1982.467228
20
324.994947
30
0
11
1982.467228
21
504.994947
31
0
0
LINE
8
DIMENSION
62
6
10
-1598.621166
20
-2325.004947
30
0
11
1982.467228
21
-2325.004947
31
0
0
LINE
8
DIMENSION
62
6
10
1982.467228
20
-2325.004947
30
0
11
1982.467228
21
504.994947
31
0
0
LINE
8
DIMENSION
62
6
10
1982.467228
20
504.994947
30
0
11
2252.467228
21
504.994947
31
0
0
TEXT
8
DIMENSION
62
6
10
2332.467228
20
504.994947
30
0
40
75
1
Tie points to
50
0
7
STANDARD
0
TEXT
8
DIMENSION
62
6
10
2332.467228
20
374.994947
30
0
40
75
1
existing structures
50
0
7
STANDARD
0
TEXT
8
DIMENSION
62
6
10
2332.467228
20
244.994947
30
0
40
75
1
at indicated points.
50
0
7
STANDARD
0
ENDSEC
0
EOF
