0
SECTION
2
HEADER
9
$ACADVER
1
AC1009
9
$INSUNITS
70
4
9
$MEASUREMENT
70
1
9
$LUNITS
70
2
9
$LUPREC
70
1
9
$TILEMODE
70
1
9
$EXTMIN
10
-2652.095773
20
-1691.720966
30
0
9
$EXTMAX
10
2652.095773
20
1691.720966
30
0
9
$PEXTMIN
10
-2652.095773
20
-1691.720966
30
0
9
$PEXTMAX
10
2652.095773
20
1691.720966
30
0
9
$LIMMIN
10
-3152.095773
20
-2191.720966
9
$LIMMAX
10
3152.095773
20
2191.720966
9
$PLIMMIN
10
-3152.095773
20
-2191.720966
9
$PLIMMAX
10
3152.095773
20
2191.720966
0
ENDSEC
0
SECTION
2
TABLES
0
TABLE
2
VPORT
70
1
0
VPORT
2
*ACTIVE
70
0
10
0
20
0
11
1
21
1
12
0
22
0
40
4383.441933
41
1.438183
42
50
43
0
44
0
50
0
51
0
71
0
72
100
73
1
74
3
75
0
76
0
77
0
78
0
0
ENDTAB
0
TABLE
2
LTYPE
70
2
0
LTYPE
2
CONTINUOUS
70
0
3
Solid line
72
65
73
0
40
0
0
LTYPE
2
DASHED
70
0
3
Dashed
72
65
73
2
40
240
49
120
74
0
49
-120
74
0
0
ENDTAB
0
TABLE
2
LAYER
70
6
0
LAYER
2
PIPES
70
0
62
5
6
CONTINUOUS
0
LAYER
2
PIPE_ENDS
70
0
62
5
6
CONTINUOUS
0
LAYER
2
DIMENSION
70
0
62
1
6
CONTINUOUS
0
LAYER
2
LEVEL_GUIDE
70
0
62
1
6
DASHED
0
LAYER
2
LEVEL_TEXT
70
0
62
1
6
CONTINUOUS
0
LAYER
2
FRAME
70
0
62
5
6
CONTINUOUS
0
ENDTAB
0
TABLE
2
STYLE
70
1
0
STYLE
2
STANDARD
70
0
40
0
41
1
50
0
71
0
42
100
3
txt
4

0
ENDTAB
0
ENDSEC
0
SECTION
2
BLOCKS
0
BLOCK
8
0
2
$MODEL_SPACE
70
0
10
0
20
0
30
0
3
$MODEL_SPACE
0
ENDBLK
8
0
0
BLOCK
67
1
8
0
2
$PAPER_SPACE
70
0
10
0
20
0
30
0
3
$PAPER_SPACE
0
ENDBLK
67
1
8
0
0
ENDSEC
0
SECTION
2
ENTITIES
0
LINE
8
PIPES
10
-838.654227
20
-771.720966
30
0
11
-838.654227
21
1028.279421
31
0
0
LINE
8
PIPES
10
-2588.653627
20
-771.720966
30
0
11
-2588.653627
21
1028.279421
31
0
0
LINE
8
PIPES
10
-2588.653627
20
-771.720966
30
0
11
-1713.652227
21
-771.720385
31
0
0
LINE
8
PIPES
10
-1713.652227
20
-771.720385
30
0
11
-838.654227
21
-771.720966
31
0
0
LINE
8
PIPES
10
-838.654227
20
1028.279421
30
0
11
-1713.652227
21
1028.279421
31
0
0
LINE
8
PIPES
10
-1713.652227
20
1028.279421
30
0
11
-2588.653627
21
1028.279421
31
0
0
LINE
8
PIPES
10
-1713.652227
20
128.281421
30
0
11
-1713.652227
21
428.279421
31
0
0
LINE
8
PIPES
10
-1713.652227
20
728.279421
30
0
11
-1713.652227
21
1028.279421
31
0
0
LINE
8
PIPES
10
-1713.652227
20
428.279421
30
0
11
-1713.652227
21
728.279421
31
0
0
LINE
8
PIPES
10
-1713.652227
20
428.279421
30
0
11
-1713.652227
21
578.279421
31
0
0
LINE
8
PIPES
10
-1713.652227
20
-171.719579
30
0
11
-1713.652227
21
128.281421
31
0
0
LINE
8
PIPES
10
-1713.652227
20
-471.719579
30
0
11
-1713.652227
21
-171.719579
31
0
0
LINE
8
PIPES
10
-1713.652227
20
-471.719579
30
0
11
-1713.652227
21
-321.719579
31
0
0
LINE
8
PIPES
10
-1713.652227
20
578.279421
30
0
11
-1713.652227
21
728.279421
31
0
0
LINE
8
PIPES
10
-1713.652227
20
-321.719579
30
0
11
-1713.652227
21
-171.719579
31
0
0
LINE
8
PIPES
10
-838.654227
20
1028.279421
30
0
11
-1713.652227
21
578.279421
31
0
0
LINE
8
PIPES
10
-2588.653627
20
-771.720966
30
0
11
-1713.652227
21
-321.719579
31
0
0
LINE
8
PIPES
10
-2588.653627
20
-771.720966
30
0
11
-838.654227
21
-771.720966
31
0
0
LINE
8
PIPES
10
-1713.652227
20
-771.720385
30
0
11
-1713.652227
21
-471.719579
31
0
0
LINE
8
PIPES
10
-838.654227
20
1028.279421
30
0
11
-2588.653627
21
1028.279421
31
0
0
LINE
8
PIPES
10
911.345773
20
1028.279421
30
0
11
911.345773
21
-771.720966
31
0
0
LINE
8
PIPES
10
-838.654227
20
-771.720966
30
0
11
36.355773
21
-771.720385
31
0
0
LINE
8
PIPES
10
36.355773
20
-771.720385
30
0
11
911.345773
21
-771.720966
31
0
0
LINE
8
PIPES
10
911.345773
20
1028.279421
30
0
11
36.355773
21
1028.279421
31
0
0
LINE
8
PIPES
10
36.355773
20
1028.279421
30
0
11
-838.654227
21
1028.279421
31
0
0
LINE
8
PIPES
10
36.355773
20
128.281421
30
0
11
36.355773
21
428.279421
31
0
0
LINE
8
PIPES
10
36.355773
20
728.279421
30
0
11
36.355773
21
1028.279421
31
0
0
LINE
8
PIPES
10
36.355773
20
428.279421
30
0
11
36.355773
21
728.279421
31
0
0
LINE
8
PIPES
10
36.355773
20
428.279421
30
0
11
36.355773
21
578.279421
31
0
0
LINE
8
PIPES
10
36.355773
20
-171.719579
30
0
11
36.355773
21
128.281421
31
0
0
LINE
8
PIPES
10
36.355773
20
-471.719579
30
0
11
36.355773
21
-171.719579
31
0
0
LINE
8
PIPES
10
36.355773
20
-471.719579
30
0
11
36.355773
21
-321.719579
31
0
0
LINE
8
PIPES
10
36.355773
20
578.279421
30
0
11
36.355773
21
728.279421
31
0
0
LINE
8
PIPES
10
36.355773
20
-321.719579
30
0
11
36.355773
21
-171.719579
31
0
0
LINE
8
PIPES
10
911.345773
20
1028.279421
30
0
11
36.355773
21
578.279421
31
0
0
LINE
8
PIPES
10
-838.654227
20
-771.720966
30
0
11
36.355773
21
-321.719579
31
0
0
LINE
8
PIPES
10
911.345773
20
-771.720966
30
0
11
-838.654227
21
-771.720966
31
0
0
LINE
8
PIPES
10
36.355773
20
-771.720385
30
0
11
36.355773
21
-471.719579
31
0
0
LINE
8
PIPES
10
-838.654227
20
1028.279421
30
0
11
911.345773
21
1028.279421
31
0
0
LINE
8
PIPES
10
-1713.652227
20
1028.279421
30
0
11
-1713.652227
21
1328.279421
31
0
0
LINE
8
PIPES
10
36.355773
20
1028.279421
30
0
11
36.355773
21
1328.279421
31
0
0
LINE
8
PIPES
10
-1713.652227
20
1328.279421
30
0
11
-1713.652227
21
1628.279421
31
0
0
LINE
8
PIPES
10
36.355773
20
1328.279421
30
0
11
36.355773
21
1628.279421
31
0
0
CIRCLE
8
PIPE_ENDS
10
-2588.654227
20
-771.720579
30
0
40
32
0
CIRCLE
8
PIPE_ENDS
10
-838.654227
20
-771.720579
30
0
40
32
0
CIRCLE
8
PIPE_ENDS
10
-838.654227
20
1028.279421
30
0
40
32
0
CIRCLE
8
PIPE_ENDS
10
-2588.654227
20
1028.279421
30
0
40
32
0
CIRCLE
8
PIPE_ENDS
10
-1713.654227
20
-771.720579
30
0
40
25
0
CIRCLE
8
PIPE_ENDS
10
-1713.654227
20
1028.279421
30
0
40
25
0
CIRCLE
8
PIPE_ENDS
10
-1713.654227
20
128.279421
30
0
40
25
0
CIRCLE
8
PIPE_ENDS
10
-1713.654227
20
728.279421
30
0
40
25
0
CIRCLE
8
PIPE_ENDS
10
-1713.654227
20
428.279421
30
0
40
25
0
CIRCLE
8
PIPE_ENDS
10
-1713.654227
20
-171.720579
30
0
40
25
0
CIRCLE
8
PIPE_ENDS
10
-1713.654227
20
-471.720579
30
0
40
25
0
CIRCLE
8
PIPE_ENDS
10
911.345773
20
-771.720579
30
0
40
32
0
CIRCLE
8
PIPE_ENDS
10
911.345773
20
1028.279421
30
0
40
32
0
CIRCLE
8
PIPE_ENDS
10
36.345773
20
-771.720579
30
0
40
25
0
CIRCLE
8
PIPE_ENDS
10
36.345773
20
1028.279421
30
0
40
25
0
CIRCLE
8
PIPE_ENDS
10
36.345773
20
128.279421
30
0
40
25
0
CIRCLE
8
PIPE_ENDS
10
36.345773
20
728.279421
30
0
40
25
0
CIRCLE
8
PIPE_ENDS
10
36.345773
20
428.279421
30
0
40
25
0
CIRCLE
8
PIPE_ENDS
10
36.345773
20
-171.720579
30
0
40
25
0
CIRCLE
8
PIPE_ENDS
10
36.345773
20
-471.720579
30
0
40
25
0
CIRCLE
8
PIPE_ENDS
10
-1713.654227
20
1328.279421
30
0
40
25
0
CIRCLE
8
PIPE_ENDS
10
36.345773
20
1328.279421
30
0
40
25
0
CIRCLE
8
PIPE_ENDS
10
-1713.654227
20
1628.279421
30
0
40
25
0
CIRCLE
8
PIPE_ENDS
10
36.345773
20
1628.279421
30
0
40
25
0
LINE
8
DIMENSION
10
-2588.654227
20
-831.720966
30
0
11
-2588.654227
21
-1151.720966
31
0
0
LINE
8
DIMENSION
10
-1713.654227
20
-831.720966
30
0
11
-1713.654227
21
-1151.720966
31
0
0
LINE
8
DIMENSION
10
-2588.654227
20
-1151.720966
30
0
11
-1713.654227
21
-1151.720966
31
0
0
LINE
8
DIMENSION
10
-2588.654227
20
-1151.720966
30
0
11
-2652.095773
21
-1122.137688
31
0
0
LINE
8
DIMENSION
10
-2588.654227
20
-1151.720966
30
0
11
-2652.095773
21
-1181.304245
31
0
0
LINE
8
DIMENSION
10
-1713.654227
20
-1151.720966
30
0
11
-1650.212682
21
-1181.304245
31
0
0
LINE
8
DIMENSION
10
-1713.654227
20
-1151.720966
30
0
11
-1650.212682
21
-1122.137688
31
0
0
TEXT
8
DIMENSION
10
-2151.154227
20
-1321.720966
30
0
40
85
1
0.875
50
0
7
STANDARD
72
1
73
2
11
-2151.154227
21
-1321.720966
31
0
0
LINE
8
DIMENSION
10
-1713.654227
20
-831.720966
30
0
11
-1713.654227
21
-1151.720966
31
0
0
LINE
8
DIMENSION
10
-838.654227
20
-831.720966
30
0
11
-838.654227
21
-1151.720966
31
0
0
LINE
8
DIMENSION
10
-1713.654227
20
-1151.720966
30
0
11
-838.654227
21
-1151.720966
31
0
0
LINE
8
DIMENSION
10
-1713.654227
20
-1151.720966
30
0
11
-1777.095773
21
-1122.137688
31
0
0
LINE
8
DIMENSION
10
-1713.654227
20
-1151.720966
30
0
11
-1777.095773
21
-1181.304245
31
0
0
LINE
8
DIMENSION
10
-838.654227
20
-1151.720966
30
0
11
-775.212682
21
-1181.304245
31
0
0
LINE
8
DIMENSION
10
-838.654227
20
-1151.720966
30
0
11
-775.212682
21
-1122.137688
31
0
0
TEXT
8
DIMENSION
10
-1276.154227
20
-1321.720966
30
0
40
85
1
0.875
50
0
7
STANDARD
72
1
73
2
11
-1276.154227
21
-1321.720966
31
0
0
LINE
8
DIMENSION
10
-838.654227
20
-831.720966
30
0
11
-838.654227
21
-1151.720966
31
0
0
LINE
8
DIMENSION
10
36.355773
20
-831.720966
30
0
11
36.355773
21
-1151.720966
31
0
0
LINE
8
DIMENSION
10
-838.654227
20
-1151.720966
30
0
11
36.355773
21
-1151.720966
31
0
0
LINE
8
DIMENSION
10
-838.654227
20
-1151.720966
30
0
11
-902.095773
21
-1122.137688
31
0
0
LINE
8
DIMENSION
10
-838.654227
20
-1151.720966
30
0
11
-902.095773
21
-1181.304245
31
0
0
LINE
8
DIMENSION
10
36.355773
20
-1151.720966
30
0
11
99.797318
21
-1181.304245
31
0
0
LINE
8
DIMENSION
10
36.355773
20
-1151.720966
30
0
11
99.797318
21
-1122.137688
31
0
0
TEXT
8
DIMENSION
10
-401.149227
20
-1321.720966
30
0
40
85
1
0.875
50
0
7
STANDARD
72
1
73
2
11
-401.149227
21
-1321.720966
31
0
0
LINE
8
DIMENSION
10
36.355773
20
-831.720966
30
0
11
36.355773
21
-1151.720966
31
0
0
LINE
8
DIMENSION
10
911.345773
20
-831.720966
30
0
11
911.345773
21
-1151.720966
31
0
0
LINE
8
DIMENSION
10
36.355773
20
-1151.720966
30
0
11
911.345773
21
-1151.720966
31
0
0
LINE
8
DIMENSION
10
36.355773
20
-1151.720966
30
0
11
-27.085773
21
-1122.137688
31
0
0
LINE
8
DIMENSION
10
36.355773
20
-1151.720966
30
0
11
-27.085773
21
-1181.304245
31
0
0
LINE
8
DIMENSION
10
911.345773
20
-1151.720966
30
0
11
974.787318
21
-1181.304245
31
0
0
LINE
8
DIMENSION
10
911.345773
20
-1151.720966
30
0
11
974.787318
21
-1122.137688
31
0
0
TEXT
8
DIMENSION
10
473.850773
20
-1321.720966
30
0
40
85
1
0.875
50
0
7
STANDARD
72
1
73
2
11
473.850773
21
-1321.720966
31
0
0
LINE
8
DIMENSION
10
-2588.654227
20
-831.720966
30
0
11
-2588.654227
21
-1521.720966
31
0
0
LINE
8
DIMENSION
10
911.345773
20
-831.720966
30
0
11
911.345773
21
-1521.720966
31
0
0
LINE
8
DIMENSION
10
-2588.654227
20
-1521.720966
30
0
11
911.345773
21
-1521.720966
31
0
0
LINE
8
DIMENSION
10
-2588.654227
20
-1521.720966
30
0
11
-2652.095773
21
-1492.137688
31
0
0
LINE
8
DIMENSION
10
-2588.654227
20
-1521.720966
30
0
11
-2652.095773
21
-1551.304245
31
0
0
LINE
8
DIMENSION
10
911.345773
20
-1521.720966
30
0
11
974.787318
21
-1551.304245
31
0
0
LINE
8
DIMENSION
10
911.345773
20
-1521.720966
30
0
11
974.787318
21
-1492.137688
31
0
0
TEXT
8
DIMENSION
10
-838.654227
20
-1691.720966
30
0
40
85
1
TOTAL 3.5
50
0
7
STANDARD
72
1
73
2
11
-838.654227
21
-1691.720966
31
0
0
LINE
8
DIMENSION
10
971.345773
20
-771.720579
30
0
11
1611.345773
21
-771.720579
31
0
0
LINE
8
DIMENSION
10
971.345773
20
-471.720579
30
0
11
1611.345773
21
-471.720579
31
0
0
LINE
8
DIMENSION
10
1611.345773
20
-771.720579
30
0
11
1611.345773
21
-471.720579
31
0
0
LINE
8
DIMENSION
10
1611.345773
20
-771.720579
30
0
11
1581.762494
21
-835.162124
31
0
0
LINE
8
DIMENSION
10
1611.345773
20
-771.720579
30
0
11
1640.929051
21
-835.162124
31
0
0
LINE
8
DIMENSION
10
1611.345773
20
-471.720579
30
0
11
1640.929051
21
-408.279034
31
0
0
LINE
8
DIMENSION
10
1611.345773
20
-471.720579
30
0
11
1581.762494
21
-408.279034
31
0
0
TEXT
8
DIMENSION
10
1781.345773
20
-621.720579
30
0
40
85
1
0.3
50
90
7
STANDARD
72
1
73
2
11
1781.345773
21
-621.720579
31
0
0
LINE
8
DIMENSION
10
971.345773
20
-471.720579
30
0
11
1611.345773
21
-471.720579
31
0
0
LINE
8
DIMENSION
10
971.345773
20
-321.720579
30
0
11
1611.345773
21
-321.720579
31
0
0
LINE
8
DIMENSION
10
1611.345773
20
-471.720579
30
0
11
1611.345773
21
-321.720579
31
0
0
LINE
8
DIMENSION
10
1611.345773
20
-471.720579
30
0
11
1581.762494
21
-535.162124
31
0
0
LINE
8
DIMENSION
10
1611.345773
20
-471.720579
30
0
11
1640.929051
21
-535.162124
31
0
0
LINE
8
DIMENSION
10
1611.345773
20
-321.720579
30
0
11
1640.929051
21
-258.279034
31
0
0
LINE
8
DIMENSION
10
1611.345773
20
-321.720579
30
0
11
1581.762494
21
-258.279034
31
0
0
TEXT
8
DIMENSION
10
1781.345773
20
-396.720579
30
0
40
85
1
0.15
50
90
7
STANDARD
72
1
73
2
11
1781.345773
21
-396.720579
31
0
0
LINE
8
DIMENSION
10
971.345773
20
-321.720579
30
0
11
1611.345773
21
-321.720579
31
0
0
LINE
8
DIMENSION
10
971.345773
20
-171.720579
30
0
11
1611.345773
21
-171.720579
31
0
0
LINE
8
DIMENSION
10
1611.345773
20
-321.720579
30
0
11
1611.345773
21
-171.720579
31
0
0
LINE
8
DIMENSION
10
1611.345773
20
-321.720579
30
0
11
1581.762494
21
-385.162124
31
0
0
LINE
8
DIMENSION
10
1611.345773
20
-321.720579
30
0
11
1640.929051
21
-385.162124
31
0
0
LINE
8
DIMENSION
10
1611.345773
20
-171.720579
30
0
11
1640.929051
21
-108.279034
31
0
0
LINE
8
DIMENSION
10
1611.345773
20
-171.720579
30
0
11
1581.762494
21
-108.279034
31
0
0
TEXT
8
DIMENSION
10
1781.345773
20
-246.720579
30
0
40
85
1
0.15
50
90
7
STANDARD
72
1
73
2
11
1781.345773
21
-246.720579
31
0
0
LINE
8
DIMENSION
10
971.345773
20
-171.720579
30
0
11
1611.345773
21
-171.720579
31
0
0
LINE
8
DIMENSION
10
971.345773
20
128.279421
30
0
11
1611.345773
21
128.279421
31
0
0
LINE
8
DIMENSION
10
1611.345773
20
-171.720579
30
0
11
1611.345773
21
128.279421
31
0
0
LINE
8
DIMENSION
10
1611.345773
20
-171.720579
30
0
11
1581.762494
21
-235.162124
31
0
0
LINE
8
DIMENSION
10
1611.345773
20
-171.720579
30
0
11
1640.929051
21
-235.162124
31
0
0
LINE
8
DIMENSION
10
1611.345773
20
128.279421
30
0
11
1640.929051
21
191.720966
31
0
0
LINE
8
DIMENSION
10
1611.345773
20
128.279421
30
0
11
1581.762494
21
191.720966
31
0
0
TEXT
8
DIMENSION
10
1781.345773
20
-21.720579
30
0
40
85
1
0.3
50
90
7
STANDARD
72
1
73
2
11
1781.345773
21
-21.720579
31
0
0
LINE
8
DIMENSION
10
971.345773
20
128.279421
30
0
11
1611.345773
21
128.279421
31
0
0
LINE
8
DIMENSION
10
971.345773
20
428.279421
30
0
11
1611.345773
21
428.279421
31
0
0
LINE
8
DIMENSION
10
1611.345773
20
128.279421
30
0
11
1611.345773
21
428.279421
31
0
0
LINE
8
DIMENSION
10
1611.345773
20
128.279421
30
0
11
1581.762494
21
64.837876
31
0
0
LINE
8
DIMENSION
10
1611.345773
20
128.279421
30
0
11
1640.929051
21
64.837876
31
0
0
LINE
8
DIMENSION
10
1611.345773
20
428.279421
30
0
11
1640.929051
21
491.720966
31
0
0
LINE
8
DIMENSION
10
1611.345773
20
428.279421
30
0
11
1581.762494
21
491.720966
31
0
0
TEXT
8
DIMENSION
10
1781.345773
20
278.279421
30
0
40
85
1
0.3
50
90
7
STANDARD
72
1
73
2
11
1781.345773
21
278.279421
31
0
0
LINE
8
DIMENSION
10
971.345773
20
428.279421
30
0
11
1611.345773
21
428.279421
31
0
0
LINE
8
DIMENSION
10
971.345773
20
578.279421
30
0
11
1611.345773
21
578.279421
31
0
0
LINE
8
DIMENSION
10
1611.345773
20
428.279421
30
0
11
1611.345773
21
578.279421
31
0
0
LINE
8
DIMENSION
10
1611.345773
20
428.279421
30
0
11
1581.762494
21
364.837876
31
0
0
LINE
8
DIMENSION
10
1611.345773
20
428.279421
30
0
11
1640.929051
21
364.837876
31
0
0
LINE
8
DIMENSION
10
1611.345773
20
578.279421
30
0
11
1640.929051
21
641.720966
31
0
0
LINE
8
DIMENSION
10
1611.345773
20
578.279421
30
0
11
1581.762494
21
641.720966
31
0
0
TEXT
8
DIMENSION
10
1781.345773
20
503.279421
30
0
40
85
1
0.15
50
90
7
STANDARD
72
1
73
2
11
1781.345773
21
503.279421
31
0
0
LINE
8
DIMENSION
10
971.345773
20
578.279421
30
0
11
1611.345773
21
578.279421
31
0
0
LINE
8
DIMENSION
10
971.345773
20
728.279421
30
0
11
1611.345773
21
728.279421
31
0
0
LINE
8
DIMENSION
10
1611.345773
20
578.279421
30
0
11
1611.345773
21
728.279421
31
0
0
LINE
8
DIMENSION
10
1611.345773
20
578.279421
30
0
11
1581.762494
21
514.837876
31
0
0
LINE
8
DIMENSION
10
1611.345773
20
578.279421
30
0
11
1640.929051
21
514.837876
31
0
0
LINE
8
DIMENSION
10
1611.345773
20
728.279421
30
0
11
1640.929051
21
791.720966
31
0
0
LINE
8
DIMENSION
10
1611.345773
20
728.279421
30
0
11
1581.762494
21
791.720966
31
0
0
TEXT
8
DIMENSION
10
1781.345773
20
653.279421
30
0
40
85
1
0.15
50
90
7
STANDARD
72
1
73
2
11
1781.345773
21
653.279421
31
0
0
LINE
8
DIMENSION
10
971.345773
20
728.279421
30
0
11
1611.345773
21
728.279421
31
0
0
LINE
8
DIMENSION
10
971.345773
20
1028.279421
30
0
11
1611.345773
21
1028.279421
31
0
0
LINE
8
DIMENSION
10
1611.345773
20
728.279421
30
0
11
1611.345773
21
1028.279421
31
0
0
LINE
8
DIMENSION
10
1611.345773
20
728.279421
30
0
11
1581.762494
21
664.837876
31
0
0
LINE
8
DIMENSION
10
1611.345773
20
728.279421
30
0
11
1640.929051
21
664.837876
31
0
0
LINE
8
DIMENSION
10
1611.345773
20
1028.279421
30
0
11
1640.929051
21
1091.720966
31
0
0
LINE
8
DIMENSION
10
1611.345773
20
1028.279421
30
0
11
1581.762494
21
1091.720966
31
0
0
TEXT
8
DIMENSION
10
1781.345773
20
878.279421
30
0
40
85
1
0.3
50
90
7
STANDARD
72
1
73
2
11
1781.345773
21
878.279421
31
0
0
LINE
8
DIMENSION
10
971.345773
20
1028.279421
30
0
11
1611.345773
21
1028.279421
31
0
0
LINE
8
DIMENSION
10
971.345773
20
1328.279421
30
0
11
1611.345773
21
1328.279421
31
0
0
LINE
8
DIMENSION
10
1611.345773
20
1028.279421
30
0
11
1611.345773
21
1328.279421
31
0
0
LINE
8
DIMENSION
10
1611.345773
20
1028.279421
30
0
11
1581.762494
21
964.837876
31
0
0
LINE
8
DIMENSION
10
1611.345773
20
1028.279421
30
0
11
1640.929051
21
964.837876
31
0
0
LINE
8
DIMENSION
10
1611.345773
20
1328.279421
30
0
11
1640.929051
21
1391.720966
31
0
0
LINE
8
DIMENSION
10
1611.345773
20
1328.279421
30
0
11
1581.762494
21
1391.720966
31
0
0
TEXT
8
DIMENSION
10
1781.345773
20
1178.279421
30
0
40
85
1
0.3
50
90
7
STANDARD
72
1
73
2
11
1781.345773
21
1178.279421
31
0
0
LINE
8
DIMENSION
10
971.345773
20
1328.279421
30
0
11
1611.345773
21
1328.279421
31
0
0
LINE
8
DIMENSION
10
971.345773
20
1628.279421
30
0
11
1611.345773
21
1628.279421
31
0
0
LINE
8
DIMENSION
10
1611.345773
20
1328.279421
30
0
11
1611.345773
21
1628.279421
31
0
0
LINE
8
DIMENSION
10
1611.345773
20
1328.279421
30
0
11
1581.762494
21
1264.837876
31
0
0
LINE
8
DIMENSION
10
1611.345773
20
1328.279421
30
0
11
1640.929051
21
1264.837876
31
0
0
LINE
8
DIMENSION
10
1611.345773
20
1628.279421
30
0
11
1640.929051
21
1691.720966
31
0
0
LINE
8
DIMENSION
10
1611.345773
20
1628.279421
30
0
11
1581.762494
21
1691.720966
31
0
0
TEXT
8
DIMENSION
10
1781.345773
20
1478.279421
30
0
40
85
1
0.3
50
90
7
STANDARD
72
1
73
2
11
1781.345773
21
1478.279421
31
0
0
LINE
8
DIMENSION
10
971.345773
20
-771.720579
30
0
11
2061.345773
21
-771.720579
31
0
0
LINE
8
DIMENSION
10
971.345773
20
1628.279421
30
0
11
2061.345773
21
1628.279421
31
0
0
LINE
8
DIMENSION
10
2061.345773
20
-771.720579
30
0
11
2061.345773
21
1628.279421
31
0
0
LINE
8
DIMENSION
10
2061.345773
20
-771.720579
30
0
11
2031.762494
21
-835.162124
31
0
0
LINE
8
DIMENSION
10
2061.345773
20
-771.720579
30
0
11
2090.929051
21
-835.162124
31
0
0
LINE
8
DIMENSION
10
2061.345773
20
1628.279421
30
0
11
2090.929051
21
1691.720966
31
0
0
LINE
8
DIMENSION
10
2061.345773
20
1628.279421
30
0
11
2031.762494
21
1691.720966
31
0
0
TEXT
8
DIMENSION
10
2231.345773
20
428.279421
30
0
40
85
1
TOTAL 2.4
50
90
7
STANDARD
72
1
73
2
11
2231.345773
21
428.279421
31
0
0
ENDSEC
0
EOF
