0
SECTION
2
HEADER
9
$ACADVER
1
AC1009
9
$INSUNITS
70
4
9
$MEASUREMENT
70
1
9
$LUNITS
70
2
9
$LUPREC
70
1
9
$TILEMODE
70
1
9
$EXTMIN
10
-3893.597573
20
-3750.0105
30
0
9
$EXTMAX
10
3893.597573
20
3750.0105
30
0
9
$PEXTMIN
10
-3893.597573
20
-3750.0105
30
0
9
$PEXTMAX
10
3893.597573
20
3750.0105
30
0
9
$LIMMIN
10
-4393.597573
20
-4250.0105
9
$LIMMAX
10
4393.597573
20
4250.0105
9
$PLIMMIN
10
-4393.597573
20
-4250.0105
9
$PLIMMAX
10
4393.597573
20
4250.0105
0
ENDSEC
0
SECTION
2
TABLES
0
TABLE
2
VPORT
70
1
0
VPORT
2
*ACTIVE
70
0
10
0
20
0
11
1
21
1
12
0
22
0
40
8500.021
41
1.033785
42
50
43
0
44
0
50
0
51
0
71
0
72
100
73
1
74
3
75
0
76
0
77
0
78
0
0
ENDTAB
0
TABLE
2
LTYPE
70
2
0
LTYPE
2
CONTINUOUS
70
0
3
Solid line
72
65
73
0
40
0
0
LTYPE
2
DASHED
70
0
3
Dashed
72
65
73
2
40
240
49
120
74
0
49
-120
74
0
0
ENDTAB
0
TABLE
2
LAYER
70
6
0
LAYER
2
PIPES
70
0
62
5
6
CONTINUOUS
0
LAYER
2
PIPE_ENDS
70
0
62
5
6
CONTINUOUS
0
LAYER
2
DIMENSION
70
0
62
1
6
CONTINUOUS
0
LAYER
2
LEVEL_GUIDE
70
0
62
1
6
DASHED
0
LAYER
2
LEVEL_TEXT
70
0
62
1
6
CONTINUOUS
0
LAYER
2
FRAME
70
0
62
5
6
CONTINUOUS
0
ENDTAB
0
TABLE
2
STYLE
70
1
0
STYLE
2
STANDARD
70
0
40
0
41
1
50
0
71
0
42
100
3
txt
4

0
ENDTAB
0
ENDSEC
0
SECTION
2
BLOCKS
0
BLOCK
8
0
2
$MODEL_SPACE
70
0
10
0
20
0
30
0
3
$MODEL_SPACE
0
ENDBLK
8
0
0
BLOCK
67
1
8
0
2
$PAPER_SPACE
70
0
10
0
20
0
30
0
3
$PAPER_SPACE
0
ENDBLK
67
1
8
0
0
ENDSEC
0
SECTION
2
ENTITIES
0
LINE
8
PIPES
10
-429.487298
20
-3450.0095
30
0
11
436.538106
21
-2950.0095
31
0
0
LINE
8
PIPES
10
-1295.512702
20
50.0005
30
0
11
-2161.546766
21
-450.0045
31
0
0
LINE
8
PIPES
10
-3893.597573
20
-1450.0045
30
0
11
-2161.538106
21
-2450.0095
31
0
0
LINE
8
PIPES
10
436.538106
20
-2950.0095
30
0
11
1302.563509
21
-2450.0095
31
0
0
LINE
8
PIPES
10
1302.563509
20
-2450.0095
30
0
11
2168.597573
21
-1950.0045
31
0
0
LINE
8
PIPES
10
-2161.546766
20
-450.0045
30
0
11
-3027.57217
21
-950.0045
31
0
0
LINE
8
PIPES
10
-3027.57217
20
-950.0045
30
0
11
-3893.597573
21
-1450.0045
31
0
0
LINE
8
PIPES
10
-429.487298
20
-3450.0095
30
0
11
-429.487298
21
-3750.0105
31
0
0
LINE
8
PIPES
10
2168.597573
20
-1950.0045
30
0
11
2168.597573
21
-2250.0055
31
0
0
LINE
8
PIPES
10
-1295.512702
20
50.0005
30
0
11
-1295.512702
21
-250.0005
31
0
0
LINE
8
PIPES
10
-3893.597573
20
-1450.0045
30
0
11
-3893.597573
21
-1750.0055
31
0
0
LINE
8
PIPES
10
436.538106
20
-2950.0095
30
0
11
436.538106
21
-3250.0105
31
0
0
LINE
8
PIPES
10
1302.563509
20
-2450.0095
30
0
11
1302.563509
21
-2750.0105
31
0
0
LINE
8
PIPES
10
-2161.546766
20
-450.0045
30
0
11
-2161.546766
21
-750.0055
31
0
0
LINE
8
PIPES
10
-3027.57217
20
-950.0045
30
0
11
-3027.57217
21
-1250.0055
31
0
0
LINE
8
PIPES
10
-2161.538106
20
-2450.0095
30
0
11
-2161.538106
21
-2750.0105
31
0
0
LINE
8
PIPES
10
436.546766
20
-950.0045
30
0
11
436.546766
21
-1250.0055
31
0
0
LINE
8
PIPES
10
-2161.538106
20
-2450.0095
30
0
11
-862.5
21
-1700.0095
31
0
0
LINE
8
PIPES
10
-862.5
20
-1700.0095
30
0
11
436.546766
21
-950.0045
31
0
0
LINE
8
PIPES
10
-862.5
20
-1700.0095
30
0
11
-862.5
21
-2000.0105
31
0
0
LINE
8
PIPES
10
-429.487298
20
-3450.0095
30
0
11
-429.487298
21
-1750.0095
31
0
0
LINE
8
PIPES
10
2168.597573
20
-1950.0045
30
0
11
2168.597573
21
-250.0045
31
0
0
LINE
8
PIPES
10
-1295.512702
20
50.0005
30
0
11
-1295.512702
21
1750.0005
31
0
0
LINE
8
PIPES
10
-3893.597573
20
-1450.0045
30
0
11
-3893.597573
21
249.9955
31
0
0
LINE
8
PIPES
10
436.538106
20
-2950.0095
30
0
11
436.538106
21
-1250.0095
31
0
0
LINE
8
PIPES
10
1302.563509
20
-2450.0095
30
0
11
1302.563509
21
-750.0095
31
0
0
LINE
8
PIPES
10
-2161.546766
20
-450.0045
30
0
11
-2161.546766
21
1249.9955
31
0
0
LINE
8
PIPES
10
-3027.57217
20
-950.0045
30
0
11
-3027.57217
21
749.9955
31
0
0
LINE
8
PIPES
10
-2161.538106
20
-2450.0095
30
0
11
-2161.538106
21
-750.0095
31
0
0
LINE
8
PIPES
10
436.546766
20
-950.0045
30
0
11
436.546766
21
749.9955
31
0
0
LINE
8
PIPES
10
-862.5
20
-1700.0095
30
0
11
-862.5
21
-0.0095
31
0
0
LINE
8
PIPES
10
-429.487298
20
-1750.0095
30
0
11
436.538106
21
-1250.0095
31
0
0
LINE
8
PIPES
10
2168.597573
20
-250.0045
30
0
11
436.546766
21
749.9955
31
0
0
LINE
8
PIPES
10
-1295.512702
20
1750.0005
30
0
11
-2161.546766
21
1249.9955
31
0
0
LINE
8
PIPES
10
-3893.597573
20
249.9955
30
0
11
-2161.538106
21
-750.0095
31
0
0
LINE
8
PIPES
10
436.538106
20
-1250.0095
30
0
11
1302.563509
21
-750.0095
31
0
0
LINE
8
PIPES
10
1302.563509
20
-750.0095
30
0
11
2168.597573
21
-250.0045
31
0
0
LINE
8
PIPES
10
-3027.57217
20
749.9955
30
0
11
-3893.597573
21
249.9955
31
0
0
LINE
8
PIPES
10
-2161.538106
20
-750.0095
30
0
11
-429.487298
21
-1750.0095
31
0
0
LINE
8
PIPES
10
436.546766
20
749.9955
30
0
11
-1295.512702
21
1750.0005
31
0
0
LINE
8
PIPES
10
-2161.538106
20
-750.0095
30
0
11
-862.5
21
-0.0095
31
0
0
LINE
8
PIPES
10
-862.5
20
-0.0095
30
0
11
436.546766
21
749.9955
31
0
0
LINE
8
PIPES
10
-429.487298
20
-1750.0095
30
0
11
-429.487298
21
-349.9995
31
0
0
LINE
8
PIPES
10
2168.597573
20
-250.0045
30
0
11
2168.597573
21
1150.0055
31
0
0
LINE
8
PIPES
10
-1295.512702
20
1750.0005
30
0
11
-1295.512702
21
3150.0105
31
0
0
LINE
8
PIPES
10
-3893.597573
20
249.9955
30
0
11
-3893.597573
21
1650.0055
31
0
0
LINE
8
PIPES
10
436.538106
20
-1250.0095
30
0
11
436.538106
21
450.0005
31
0
0
LINE
8
PIPES
10
1302.563509
20
-750.0095
30
0
11
1302.563509
21
950.0005
31
0
0
LINE
8
PIPES
10
-2161.546766
20
1249.9955
30
0
11
-2161.546766
21
2950.0055
31
0
0
LINE
8
PIPES
10
-3027.57217
20
749.9955
30
0
11
-3027.57217
21
2450.0055
31
0
0
LINE
8
PIPES
10
-2161.538106
20
-750.0095
30
0
11
-2161.538106
21
650.0005
31
0
0
LINE
8
PIPES
10
436.546766
20
749.9955
30
0
11
436.546766
21
2150.0055
31
0
0
LINE
8
PIPES
10
-862.5
20
-0.0095
30
0
11
-862.5
21
1400.0005
31
0
0
LINE
8
PIPES
10
-429.487298
20
-49.9995
30
0
11
-169.678811
21
100.001
31
0
0
LINE
8
PIPES
10
2168.597573
20
1450.0055
30
0
11
436.546766
21
2450.0055
31
0
0
LINE
8
PIPES
10
-1295.512702
20
3450.0105
30
0
11
-1555.320323
21
3300.0105
31
0
0
LINE
8
PIPES
10
-3893.597573
20
1950.0055
30
0
11
-2161.538106
21
950.0005
31
0
0
LINE
8
PIPES
10
436.538106
20
450.0005
30
0
11
609.743186
21
550.0005
31
0
0
LINE
8
PIPES
10
1302.563509
20
950.0005
30
0
11
1389.16605
21
1000.0005
31
0
0
LINE
8
PIPES
10
-2161.546766
20
2950.0055
30
0
11
-2334.751847
21
2850.0055
31
0
0
LINE
8
PIPES
10
-3027.57217
20
2450.0055
30
0
11
-3114.172978
21
2400.0065
31
0
0
LINE
8
PIPES
10
-2161.538106
20
950.0005
30
0
11
-429.487298
21
-49.9995
31
0
0
LINE
8
PIPES
10
436.546766
20
2450.0055
30
0
11
-1295.512702
21
3450.0105
31
0
0
LINE
8
PIPES
10
-2161.538106
20
950.0005
30
0
11
-1901.729619
21
1100.001
31
0
0
LINE
8
PIPES
10
-862.5
20
1700.0005
30
0
11
-775.89746
21
1750.0005
31
0
0
LINE
8
PIPES
10
-429.487298
20
-49.9995
30
0
11
-429.487298
21
250.0005
31
0
0
LINE
8
PIPES
10
2168.597573
20
1450.0055
30
0
11
2168.597573
21
1750.0055
31
0
0
LINE
8
PIPES
10
-1295.512702
20
3450.0105
30
0
11
-1295.512702
21
3750.0105
31
0
0
LINE
8
PIPES
10
-3893.597573
20
1950.0055
30
0
11
-3893.597573
21
2250.0055
31
0
0
LINE
8
PIPES
10
436.538106
20
450.0005
30
0
11
436.538106
21
750.0005
31
0
0
LINE
8
PIPES
10
1302.563509
20
950.0005
30
0
11
1302.563509
21
1250.0005
31
0
0
LINE
8
PIPES
10
-2161.546766
20
2950.0055
30
0
11
-2161.546766
21
3250.0055
31
0
0
LINE
8
PIPES
10
-3027.57217
20
2450.0055
30
0
11
-3027.57217
21
2750.0055
31
0
0
LINE
8
PIPES
10
-2161.538106
20
950.0005
30
0
11
-2161.538106
21
1250.0005
31
0
0
LINE
8
PIPES
10
436.546766
20
2450.0055
30
0
11
436.546766
21
2750.0055
31
0
0
LINE
8
PIPES
10
-862.5
20
1700.0005
30
0
11
-862.5
21
2000.0005
31
0
0
LINE
8
PIPES
10
-429.487298
20
250.0005
30
0
11
436.538106
21
750.0005
31
0
0
LINE
8
PIPES
10
2168.597573
20
1750.0055
30
0
11
436.546766
21
2750.0055
31
0
0
LINE
8
PIPES
10
-1295.512702
20
3750.0105
30
0
11
-2161.546766
21
3250.0055
31
0
0
LINE
8
PIPES
10
-3893.597573
20
2250.0055
30
0
11
-2161.538106
21
1250.0005
31
0
0
LINE
8
PIPES
10
436.538106
20
750.0005
30
0
11
696.345727
21
900.0005
31
0
0
LINE
8
PIPES
10
1302.563509
20
1250.0005
30
0
11
2168.597573
21
1750.0055
31
0
0
LINE
8
PIPES
10
-2161.546766
20
3250.0055
30
0
11
-2507.956927
21
3050.0055
31
0
0
LINE
8
PIPES
10
-3027.57217
20
2750.0055
30
0
11
-3893.597573
21
2250.0055
31
0
0
LINE
8
PIPES
10
-2161.538106
20
1250.0005
30
0
11
-429.487298
21
250.0005
31
0
0
LINE
8
PIPES
10
436.546766
20
2750.0055
30
0
11
-1295.512702
21
3750.0105
31
0
0
LINE
8
PIPES
10
-2161.538106
20
1250.0005
30
0
11
-1035.705081
21
1900.0005
31
0
0
LINE
8
PIPES
10
-862.5
20
2000.0005
30
0
11
-775.89746
21
2050.0005
31
0
0
LINE
8
PIPES
10
-862.5
20
1700.0005
30
0
11
-645.993649
21
1575.0005
31
0
0
LINE
8
PIPES
10
-862.5
20
2000.0005
30
0
11
-645.993649
21
1875.0005
31
0
0
LINE
8
PIPES
10
-429.487298
20
1450.0005
30
0
11
-429.487298
21
1750.0005
31
0
0
LINE
8
PIPES
10
-429.487298
20
1450.0005
30
0
11
-169.679677
21
1300.0005
31
0
0
LINE
8
PIPES
10
-429.487298
20
1750.0005
30
0
11
-169.679677
21
1600.0005
31
0
0
LINE
8
PIPES
10
-169.679677
20
1300.0005
30
0
11
-169.679677
21
1600.0005
31
0
0
LINE
8
PIPES
10
-169.679677
20
1300.0005
30
0
11
90.126212
21
1150.0015
31
0
0
LINE
8
PIPES
10
-169.679677
20
1600.0005
30
0
11
-39.775866
21
1525.0005
31
0
0
LINE
8
PIPES
10
90.126212
20
1150.0015
30
0
11
90.126212
21
1450.0015
31
0
0
LINE
8
PIPES
10
90.126212
20
1150.0015
30
0
11
349.934699
21
1000.001
31
0
0
LINE
8
PIPES
10
90.126212
20
1450.0015
30
0
11
349.934699
21
1300.001
31
0
0
LINE
8
PIPES
10
349.934699
20
1000.001
30
0
11
349.934699
21
1300.001
31
0
0
LINE
8
PIPES
10
349.934699
20
1000.001
30
0
11
609.74232
21
850.001
31
0
0
LINE
8
PIPES
10
349.934699
20
1300.001
30
0
11
609.74232
21
1150.001
31
0
0
LINE
8
PIPES
10
609.74232
20
850.001
30
0
11
609.74232
21
1150.001
31
0
0
LINE
8
PIPES
10
869.550808
20
700.0005
30
0
11
956.153348
21
750.0005
31
0
0
LINE
8
PIPES
10
609.74232
20
850.001
30
0
11
869.550808
21
700.0005
31
0
0
LINE
8
PIPES
10
869.550808
20
1000.0005
30
0
11
956.153348
21
1050.0005
31
0
0
LINE
8
PIPES
10
609.74232
20
1150.001
30
0
11
869.550808
21
1000.0005
31
0
0
LINE
8
PIPES
10
869.550808
20
700.0005
30
0
11
869.550808
21
1000.0005
31
0
0
LINE
8
PIPES
10
-862.5
20
1700.0005
30
0
11
-949.10254
21
1750.0005
31
0
0
LINE
8
PIPES
10
-862.5
20
2000.0005
30
0
11
-949.10254
21
2050.0005
31
0
0
LINE
8
PIPES
10
-949.10254
20
1750.0005
30
0
11
-949.10254
21
2050.0005
31
0
0
LINE
8
PIPES
10
-949.10254
20
1750.0005
30
0
11
-1208.910162
21
1900.0005
31
0
0
LINE
8
PIPES
10
-949.10254
20
2050.0005
30
0
11
-1208.910162
21
2200.0005
31
0
0
LINE
8
PIPES
10
-1208.910162
20
1900.0005
30
0
11
-1208.910162
21
2200.0005
31
0
0
LINE
8
PIPES
10
-1208.910162
20
1900.0005
30
0
11
-1468.726443
21
2050.0055
31
0
0
LINE
8
PIPES
10
-1208.910162
20
2200.0005
30
0
11
-1468.726443
21
2350.0055
31
0
0
LINE
8
PIPES
10
-1468.726443
20
2050.0055
30
0
11
-1468.726443
21
2350.0055
31
0
0
LINE
8
PIPES
10
-1468.726443
20
2050.0055
30
0
11
-1728.534064
21
2200.0055
31
0
0
LINE
8
PIPES
10
-1468.726443
20
2350.0055
30
0
11
-1728.534064
21
2500.0055
31
0
0
LINE
8
PIPES
10
-1728.534064
20
2200.0055
30
0
11
-1728.534064
21
2500.0055
31
0
0
LINE
8
PIPES
10
-1728.534064
20
2200.0055
30
0
11
-1988.341685
21
2350.0055
31
0
0
LINE
8
PIPES
10
-1728.534064
20
2500.0055
30
0
11
-1988.341685
21
2650.0055
31
0
0
LINE
8
PIPES
10
-1988.341685
20
2350.0055
30
0
11
-1988.341685
21
2650.0055
31
0
0
LINE
8
PIPES
10
-1988.341685
20
2350.0055
30
0
11
-2248.149306
21
2500.0055
31
0
0
LINE
8
PIPES
10
-1988.341685
20
2650.0055
30
0
11
-2248.149306
21
2800.0055
31
0
0
LINE
8
PIPES
10
-2248.149306
20
2500.0055
30
0
11
-2248.149306
21
2800.0055
31
0
0
LINE
8
PIPES
10
-2248.149306
20
2500.0055
30
0
11
-2594.559468
21
2700.0055
31
0
0
LINE
8
PIPES
10
-2248.149306
20
2800.0055
30
0
11
-2594.559468
21
3000.0055
31
0
0
LINE
8
PIPES
10
-2594.559468
20
2700.0055
30
0
11
-2681.162008
21
2650.0055
31
0
0
LINE
8
PIPES
10
-2594.559468
20
3000.0055
30
0
11
-2681.162008
21
2950.0055
31
0
0
LINE
8
PIPES
10
-2594.559468
20
3000.0055
30
0
11
-2594.559468
21
2700.0055
31
0
0
LINE
8
PIPES
10
-429.487298
20
-349.9995
30
0
11
-429.487298
21
-49.9995
31
0
0
LINE
8
PIPES
10
-169.678811
20
100.001
30
0
11
90.12881
21
250.001
31
0
0
LINE
8
PIPES
10
-429.487298
20
-349.9995
30
0
11
-169.678811
21
-199.999
31
0
0
LINE
8
PIPES
10
-169.678811
20
-199.999
30
0
11
-169.678811
21
100.001
31
0
0
LINE
8
PIPES
10
90.12881
20
250.001
30
0
11
349.937297
21
400.0015
31
0
0
LINE
8
PIPES
10
-169.678811
20
-199.999
30
0
11
90.12881
21
-49.999
31
0
0
LINE
8
PIPES
10
90.12881
20
-49.999
30
0
11
90.12881
21
250.001
31
0
0
LINE
8
PIPES
10
349.937297
20
400.0015
30
0
11
436.538106
21
450.0005
31
0
0
LINE
8
PIPES
10
90.12881
20
-49.999
30
0
11
349.937297
21
100.0015
31
0
0
LINE
8
PIPES
10
349.937297
20
100.0015
30
0
11
349.937297
21
400.0015
31
0
0
LINE
8
PIPES
10
609.743186
20
550.0005
30
0
11
696.345727
21
600.0005
31
0
0
LINE
8
PIPES
10
349.937297
20
400.0015
30
0
11
609.743186
21
550.0005
31
0
0
LINE
8
PIPES
10
349.937297
20
100.0015
30
0
11
609.743186
21
250.0005
31
0
0
LINE
8
PIPES
10
609.743186
20
250.0005
30
0
11
609.743186
21
550.0005
31
0
0
LINE
8
PIPES
10
609.743186
20
250.0005
30
0
11
869.550808
21
400.0005
31
0
0
LINE
8
PIPES
10
869.550808
20
400.0005
30
0
11
869.550808
21
700.0005
31
0
0
LINE
8
PIPES
10
1129.358429
20
850.0005
30
0
11
1302.563509
21
950.0005
31
0
0
LINE
8
PIPES
10
869.550808
20
400.0005
30
0
11
1129.358429
21
550.0005
31
0
0
LINE
8
PIPES
10
1129.358429
20
550.0005
30
0
11
1129.358429
21
850.0005
31
0
0
LINE
8
PIPES
10
1389.16605
20
1000.0005
30
0
11
1648.973671
21
1150.0005
31
0
0
LINE
8
PIPES
10
1129.358429
20
850.0005
30
0
11
1389.16605
21
1000.0005
31
0
0
LINE
8
PIPES
10
1129.358429
20
550.0005
30
0
11
1389.16605
21
700.0005
31
0
0
LINE
8
PIPES
10
1389.16605
20
700.0005
30
0
11
1389.16605
21
1000.0005
31
0
0
LINE
8
PIPES
10
1648.973671
20
1150.0005
30
0
11
1908.789952
21
1300.0055
31
0
0
LINE
8
PIPES
10
1389.16605
20
700.0005
30
0
11
1648.973671
21
850.0005
31
0
0
LINE
8
PIPES
10
1648.973671
20
850.0005
30
0
11
1648.973671
21
1150.0005
31
0
0
LINE
8
PIPES
10
1908.789952
20
1300.0055
30
0
11
2168.597573
21
1450.0055
31
0
0
LINE
8
PIPES
10
1648.973671
20
850.0005
30
0
11
1908.789952
21
1000.0055
31
0
0
LINE
8
PIPES
10
1908.789952
20
1000.0055
30
0
11
1908.789952
21
1300.0055
31
0
0
LINE
8
PIPES
10
2168.597573
20
1150.0055
30
0
11
2168.597573
21
1450.0055
31
0
0
LINE
8
PIPES
10
1908.789952
20
1000.0055
30
0
11
2168.597573
21
1150.0055
31
0
0
LINE
8
PIPES
10
-3893.597573
20
1650.0055
30
0
11
-3893.597573
21
1950.0055
31
0
0
LINE
8
PIPES
10
-2161.538106
20
650.0005
30
0
11
-2161.538106
21
950.0005
31
0
0
LINE
8
PIPES
10
-3633.789086
20
2100.006
30
0
11
-3893.597573
21
1950.0055
31
0
0
LINE
8
PIPES
10
-1901.729619
20
1100.001
30
0
11
-1641.921997
21
1250.001
31
0
0
LINE
8
PIPES
10
-3893.597573
20
1650.0055
30
0
11
-3633.789086
21
1800.006
31
0
0
LINE
8
PIPES
10
-2161.538106
20
650.0005
30
0
11
-1901.729619
21
800.001
31
0
0
LINE
8
PIPES
10
-3633.789086
20
1800.006
30
0
11
-3633.789086
21
2100.006
31
0
0
LINE
8
PIPES
10
-1901.729619
20
800.001
30
0
11
-1901.729619
21
1100.001
31
0
0
LINE
8
PIPES
10
-3373.981465
20
2250.006
30
0
11
-3633.789086
21
2100.006
31
0
0
LINE
8
PIPES
10
-1641.921997
20
1250.001
30
0
11
-1382.11351
21
1400.0015
31
0
0
LINE
8
PIPES
10
-3633.789086
20
1800.006
30
0
11
-3373.981465
21
1950.006
31
0
0
LINE
8
PIPES
10
-1901.729619
20
800.001
30
0
11
-1641.921997
21
950.001
31
0
0
LINE
8
PIPES
10
-3373.981465
20
1950.006
30
0
11
-3373.981465
21
2250.006
31
0
0
LINE
8
PIPES
10
-1641.921997
20
950.001
30
0
11
-1641.921997
21
1250.001
31
0
0
LINE
8
PIPES
10
-3114.172978
20
2400.0065
30
0
11
-3373.981465
21
2250.006
31
0
0
LINE
8
PIPES
10
-1382.11351
20
1400.0015
30
0
11
-1122.307621
21
1550.0005
31
0
0
LINE
8
PIPES
10
-3373.981465
20
1950.006
30
0
11
-3114.172978
21
2100.0065
31
0
0
LINE
8
PIPES
10
-1641.921997
20
950.001
30
0
11
-1382.11351
21
1100.0015
31
0
0
LINE
8
PIPES
10
-3114.172978
20
2100.0065
30
0
11
-3114.172978
21
2400.0065
31
0
0
LINE
8
PIPES
10
-1382.11351
20
1100.0015
30
0
11
-1382.11351
21
1400.0015
31
0
0
LINE
8
PIPES
10
-2854.367089
20
2550.0055
30
0
11
-3027.57217
21
2450.0055
31
0
0
LINE
8
PIPES
10
-3114.172978
20
2400.0065
30
0
11
-2854.367089
21
2550.0055
31
0
0
LINE
8
PIPES
10
-1122.307621
20
1550.0005
30
0
11
-1035.705081
21
1600.0005
31
0
0
LINE
8
PIPES
10
-3114.172978
20
2100.0065
30
0
11
-2854.367089
21
2250.0055
31
0
0
LINE
8
PIPES
10
-1382.11351
20
1100.0015
30
0
11
-1122.307621
21
1250.0005
31
0
0
LINE
8
PIPES
10
-2854.367089
20
2250.0055
30
0
11
-2854.367089
21
2550.0055
31
0
0
LINE
8
PIPES
10
-1122.307621
20
1250.0005
30
0
11
-1122.307621
21
1550.0005
31
0
0
LINE
8
PIPES
10
-2854.367089
20
2250.0055
30
0
11
-2594.559468
21
2400.0055
31
0
0
LINE
8
PIPES
10
-862.5
20
1400.0005
30
0
11
-862.5
21
1700.0005
31
0
0
LINE
8
PIPES
10
-1122.307621
20
1250.0005
30
0
11
-862.5
21
1400.0005
31
0
0
LINE
8
PIPES
10
-2594.559468
20
2400.0055
30
0
11
-2594.559468
21
2700.0055
31
0
0
LINE
8
PIPES
10
-2334.751847
20
2850.0055
30
0
11
-2507.956927
21
2750.0055
31
0
0
LINE
8
PIPES
10
-602.692379
20
1850.0005
30
0
11
-342.884758
21
2000.0005
31
0
0
LINE
8
PIPES
10
-2594.559468
20
2400.0055
30
0
11
-2334.751847
21
2550.0055
31
0
0
LINE
8
PIPES
10
-862.5
20
1400.0005
30
0
11
-602.692379
21
1550.0005
31
0
0
LINE
8
PIPES
10
-2334.751847
20
2550.0055
30
0
11
-2334.751847
21
2850.0055
31
0
0
LINE
8
PIPES
10
-602.692379
20
1550.0005
30
0
11
-602.692379
21
1850.0005
31
0
0
LINE
8
PIPES
10
-2074.944226
20
3000.0055
30
0
11
-2161.546766
21
2950.0055
31
0
0
LINE
8
PIPES
10
-2334.751847
20
2850.0055
30
0
11
-2074.944226
21
3000.0055
31
0
0
LINE
8
PIPES
10
-342.884758
20
2000.0005
30
0
11
-83.077137
21
2150.0005
31
0
0
LINE
8
PIPES
10
-2334.751847
20
2550.0055
30
0
11
-2074.944226
21
2700.0055
31
0
0
LINE
8
PIPES
10
-602.692379
20
1550.0005
30
0
11
-342.884758
21
1700.0005
31
0
0
LINE
8
PIPES
10
-2074.944226
20
2700.0055
30
0
11
-2074.944226
21
3000.0055
31
0
0
LINE
8
PIPES
10
-342.884758
20
1700.0005
30
0
11
-342.884758
21
2000.0005
31
0
0
LINE
8
PIPES
10
-1815.136604
20
3150.0055
30
0
11
-2074.944226
21
3000.0055
31
0
0
LINE
8
PIPES
10
-83.077137
20
2150.0005
30
0
11
176.739145
21
2300.0055
31
0
0
LINE
8
PIPES
10
-2074.944226
20
2700.0055
30
0
11
-1815.136604
21
2850.0055
31
0
0
LINE
8
PIPES
10
-342.884758
20
1700.0005
30
0
11
-83.077137
21
1850.0005
31
0
0
LINE
8
PIPES
10
-1815.136604
20
2850.0055
30
0
11
-1815.136604
21
3150.0055
31
0
0
LINE
8
PIPES
10
-83.077137
20
1850.0005
30
0
11
-83.077137
21
2150.0005
31
0
0
LINE
8
PIPES
10
-1555.320323
20
3300.0105
30
0
11
-1815.136604
21
3150.0055
31
0
0
LINE
8
PIPES
10
176.739145
20
2300.0055
30
0
11
436.546766
21
2450.0055
31
0
0
LINE
8
PIPES
10
-1815.136604
20
2850.0055
30
0
11
-1555.320323
21
3000.0105
31
0
0
LINE
8
PIPES
10
-83.077137
20
1850.0005
30
0
11
176.739145
21
2000.0055
31
0
0
LINE
8
PIPES
10
-1555.320323
20
3000.0105
30
0
11
-1555.320323
21
3300.0105
31
0
0
LINE
8
PIPES
10
176.739145
20
2000.0055
30
0
11
176.739145
21
2300.0055
31
0
0
LINE
8
PIPES
10
-1295.512702
20
3150.0105
30
0
11
-1295.512702
21
3450.0105
31
0
0
LINE
8
PIPES
10
-1555.320323
20
3000.0105
30
0
11
-1295.512702
21
3150.0105
31
0
0
LINE
8
PIPES
10
436.546766
20
2150.0055
30
0
11
436.546766
21
2450.0055
31
0
0
LINE
8
PIPES
10
176.739145
20
2000.0055
30
0
11
436.546766
21
2150.0055
31
0
0
LINE
8
PIPES
10
2168.597573
20
-1950.0045
30
0
11
436.546766
21
-950.0045
31
0
0
LINE
8
PIPES
10
-645.993649
20
1875.0005
30
0
11
-429.487298
21
1750.0005
31
0
0
LINE
8
PIPES
10
-645.993649
20
1575.0005
30
0
11
-429.487298
21
1450.0005
31
0
0
LINE
8
PIPES
10
-645.993649
20
1575.0005
30
0
11
-645.993649
21
1875.0005
31
0
0
LINE
8
PIPES
10
-1295.512702
20
3150.0105
30
0
11
-2161.546766
21
1249.9955
31
0
0
LINE
8
PIPES
10
-3893.597573
20
1650.0055
30
0
11
-3027.57217
21
749.9955
31
0
0
LINE
8
PIPES
10
-3027.57217
20
749.9955
30
0
11
-3893.597573
21
-1450.0045
31
0
0
LINE
8
PIPES
10
-2161.546766
20
1249.9955
30
0
11
-1295.512702
21
50.0005
31
0
0
LINE
8
PIPES
10
-429.487298
20
-349.9995
30
0
11
436.538106
21
-1250.0095
31
0
0
LINE
8
PIPES
10
436.538106
20
-1250.0095
30
0
11
-429.487298
21
-3450.0095
31
0
0
LINE
8
PIPES
10
2168.597573
20
1150.0055
30
0
11
1302.563509
21
-750.0095
31
0
0
LINE
8
PIPES
10
1302.563509
20
-750.0095
30
0
11
2168.597573
21
-1950.0045
31
0
0
LINE
8
PIPES
10
-429.487298
20
-49.9995
30
0
11
-2161.538106
21
-750.0095
31
0
0
LINE
8
PIPES
10
-2161.538106
20
-750.0095
30
0
11
-429.487298
21
-3450.0095
31
0
0
LINE
8
PIPES
10
-2161.538106
20
950.0005
30
0
11
-3893.597573
21
249.9955
31
0
0
LINE
8
PIPES
10
-3893.597573
20
249.9955
30
0
11
-2161.538106
21
-2450.0095
31
0
0
LINE
8
PIPES
10
436.546766
20
2450.0055
30
0
11
2168.597573
21
-250.0045
31
0
0
LINE
8
PIPES
10
2168.597573
20
-250.0045
30
0
11
436.546766
21
-950.0045
31
0
0
LINE
8
PIPES
10
-1295.512702
20
3450.0105
30
0
11
436.546766
21
749.9955
31
0
0
LINE
8
PIPES
10
436.546766
20
749.9955
30
0
11
-1295.512702
21
50.0005
31
0
0
LINE
8
PIPES
10
-2161.538106
20
650.0005
30
0
11
-862.5
21
-0.0095
31
0
0
LINE
8
PIPES
10
-862.5
20
-0.0095
30
0
11
-2161.538106
21
-2450.0095
31
0
0
LINE
8
PIPES
10
-39.775866
20
1525.0005
30
0
11
90.126212
21
1450.0015
31
0
0
LINE
8
PIPES
10
-775.89746
20
1750.0005
30
0
11
-602.692379
21
1850.0005
31
0
0
LINE
8
PIPES
10
-775.89746
20
2050.0005
30
0
11
436.546766
21
2750.0055
31
0
0
LINE
8
PIPES
10
956.153348
20
750.0005
30
0
11
1129.358429
21
850.0005
31
0
0
LINE
8
PIPES
10
956.153348
20
1050.0005
30
0
11
1302.563509
21
1250.0005
31
0
0
LINE
8
PIPES
10
-2507.956927
20
2750.0055
30
0
11
-2594.559468
21
2700.0055
31
0
0
LINE
8
PIPES
10
-2507.956927
20
3050.0055
30
0
11
-2594.559468
21
3000.0055
31
0
0
LINE
8
PIPES
10
-775.89746
20
1750.0005
30
0
11
-775.89746
21
2050.0005
31
0
0
LINE
8
PIPES
10
-775.89746
20
1750.0005
30
0
11
-559.391109
21
1625.0005
31
0
0
LINE
8
PIPES
10
-775.89746
20
2050.0005
30
0
11
-559.391109
21
1925.0005
31
0
0
LINE
8
PIPES
10
-342.884758
20
1500.0005
30
0
11
-342.884758
21
1800.0005
31
0
0
LINE
8
PIPES
10
-342.884758
20
1500.0005
30
0
11
-83.077137
21
1350.0005
31
0
0
LINE
8
PIPES
10
-342.884758
20
1800.0005
30
0
11
-83.077137
21
1650.0005
31
0
0
LINE
8
PIPES
10
-83.077137
20
1350.0005
30
0
11
-83.077137
21
1650.0005
31
0
0
LINE
8
PIPES
10
-83.078869
20
1350.0015
30
0
11
176.729619
21
1200.001
31
0
0
LINE
8
PIPES
10
-83.077137
20
1650.0005
30
0
11
46.826674
21
1575.0005
31
0
0
LINE
8
PIPES
10
176.728752
20
1200.0015
30
0
11
176.728752
21
1500.0015
31
0
0
LINE
8
PIPES
10
176.729619
20
1200.001
30
0
11
436.53724
21
1050.001
31
0
0
LINE
8
PIPES
10
176.728752
20
1500.0015
30
0
11
436.53724
21
1350.001
31
0
0
LINE
8
PIPES
10
436.53724
20
1050.001
30
0
11
436.53724
21
1350.001
31
0
0
LINE
8
PIPES
10
436.53724
20
1050.001
30
0
11
696.345727
21
900.0005
31
0
0
LINE
8
PIPES
10
436.53724
20
1350.001
30
0
11
696.344861
21
1200.001
31
0
0
LINE
8
PIPES
10
696.344861
20
900.001
30
0
11
696.344861
21
1200.001
31
0
0
LINE
8
PIPES
10
696.344861
20
900.001
30
0
11
956.153348
21
750.0005
31
0
0
LINE
8
PIPES
10
696.344861
20
1200.001
30
0
11
956.153348
21
1050.0005
31
0
0
LINE
8
PIPES
10
956.153348
20
750.0005
30
0
11
956.153348
21
1050.0005
31
0
0
LINE
8
PIPES
10
-775.89746
20
1750.0005
30
0
11
-862.5
21
1800.0005
31
0
0
LINE
8
PIPES
10
-775.89746
20
2050.0005
30
0
11
-862.5
21
2100.0005
31
0
0
LINE
8
PIPES
10
-862.5
20
1800.0005
30
0
11
-862.5
21
2100.0005
31
0
0
LINE
8
PIPES
10
-862.5
20
1800.0005
30
0
11
-1122.307621
21
1950.0005
31
0
0
LINE
8
PIPES
10
-862.5
20
2100.0005
30
0
11
-1122.307621
21
2250.0005
31
0
0
LINE
8
PIPES
10
-1122.307621
20
1950.0005
30
0
11
-1122.307621
21
2250.0005
31
0
0
LINE
8
PIPES
10
-1122.307621
20
1950.0005
30
0
11
-1382.123903
21
2100.0055
31
0
0
LINE
8
PIPES
10
-1122.307621
20
2250.0005
30
0
11
-1382.123903
21
2400.0055
31
0
0
LINE
8
PIPES
10
-1382.123903
20
2100.0055
30
0
11
-1382.123903
21
2400.0055
31
0
0
LINE
8
PIPES
10
-1382.123903
20
2100.0055
30
0
11
-1641.931524
21
2250.0055
31
0
0
LINE
8
PIPES
10
-1382.123903
20
2400.0055
30
0
11
-1641.931524
21
2550.0055
31
0
0
LINE
8
PIPES
10
-1641.931524
20
2250.0055
30
0
11
-1641.931524
21
2550.0055
31
0
0
LINE
8
PIPES
10
-1641.931524
20
2250.0055
30
0
11
-1901.739145
21
2400.0055
31
0
0
LINE
8
PIPES
10
-1641.931524
20
2550.0055
30
0
11
-1901.739145
21
2700.0055
31
0
0
LINE
8
PIPES
10
-1901.739145
20
2400.0055
30
0
11
-1901.739145
21
2700.0055
31
0
0
LINE
8
PIPES
10
-1901.739145
20
2400.0055
30
0
11
-2161.546766
21
2550.0055
31
0
0
LINE
8
PIPES
10
-1901.739145
20
2700.0055
30
0
11
-2161.546766
21
2850.0055
31
0
0
LINE
8
PIPES
10
-2161.546766
20
2550.0055
30
0
11
-2161.546766
21
2850.0055
31
0
0
LINE
8
PIPES
10
-2161.546766
20
2550.0055
30
0
11
-2507.956927
21
2750.0055
31
0
0
LINE
8
PIPES
10
-2161.546766
20
2850.0055
30
0
11
-2507.956927
21
3050.0055
31
0
0
LINE
8
PIPES
10
-2507.956927
20
3050.0055
30
0
11
-2507.956927
21
2750.0055
31
0
0
LINE
8
PIPES
10
-559.391109
20
1925.0005
30
0
11
-342.884758
21
1800.0005
31
0
0
LINE
8
PIPES
10
-559.391109
20
1625.0005
30
0
11
-342.884758
21
1500.0005
31
0
0
LINE
8
PIPES
10
-559.391109
20
1625.0005
30
0
11
-559.391109
21
1925.0005
31
0
0
LINE
8
PIPES
10
46.826674
20
1575.0005
30
0
11
176.728752
21
1500.0015
31
0
0
LINE
8
PIPES
10
-949.10254
20
1650.0005
30
0
11
-862.5
21
1700.0005
31
0
0
LINE
8
PIPES
10
-949.10254
20
1950.0005
30
0
11
-862.5
21
2000.0005
31
0
0
LINE
8
PIPES
10
782.948267
20
650.0005
30
0
11
869.550808
21
700.0005
31
0
0
LINE
8
PIPES
10
782.948267
20
950.0005
30
0
11
869.550808
21
1000.0005
31
0
0
LINE
8
PIPES
10
-2681.162008
20
2650.0055
30
0
11
-2767.764549
21
2600.0055
31
0
0
LINE
8
PIPES
10
-2681.162008
20
2950.0055
30
0
11
-2767.764549
21
2900.0055
31
0
0
LINE
8
PIPES
10
-949.10254
20
1650.0005
30
0
11
-949.10254
21
1950.0005
31
0
0
LINE
8
PIPES
10
-949.10254
20
1650.0005
30
0
11
-732.596189
21
1525.0005
31
0
0
LINE
8
PIPES
10
-949.10254
20
1950.0005
30
0
11
-732.596189
21
1825.0005
31
0
0
LINE
8
PIPES
10
-516.089838
20
1400.0005
30
0
11
-516.089838
21
1700.0005
31
0
0
LINE
8
PIPES
10
-516.089838
20
1400.0005
30
0
11
-256.282217
21
1250.0005
31
0
0
LINE
8
PIPES
10
-516.089838
20
1700.0005
30
0
11
-256.282217
21
1550.0005
31
0
0
LINE
8
PIPES
10
-256.282217
20
1250.0005
30
0
11
-256.282217
21
1550.0005
31
0
0
LINE
8
PIPES
10
-256.282217
20
1250.0005
30
0
11
3.523672
21
1100.0015
31
0
0
LINE
8
PIPES
10
-256.282217
20
1550.0005
30
0
11
-126.378407
21
1475.0005
31
0
0
LINE
8
PIPES
10
3.523672
20
1100.0015
30
0
11
3.523672
21
1400.0015
31
0
0
LINE
8
PIPES
10
3.523672
20
1100.0015
30
0
11
263.332159
21
950.001
31
0
0
LINE
8
PIPES
10
3.523672
20
1400.0015
30
0
11
263.332159
21
1250.001
31
0
0
LINE
8
PIPES
10
263.332159
20
950.001
30
0
11
263.332159
21
1250.001
31
0
0
LINE
8
PIPES
10
263.332159
20
950.001
30
0
11
523.13978
21
800.001
31
0
0
LINE
8
PIPES
10
263.332159
20
1250.001
30
0
11
523.13978
21
1100.001
31
0
0
LINE
8
PIPES
10
523.13978
20
800.001
30
0
11
523.13978
21
1100.001
31
0
0
LINE
8
PIPES
10
523.13978
20
800.001
30
0
11
782.948267
21
650.0005
31
0
0
LINE
8
PIPES
10
523.13978
20
1100.001
30
0
11
782.948267
21
950.0005
31
0
0
LINE
8
PIPES
10
782.948267
20
650.0005
30
0
11
782.948267
21
950.0005
31
0
0
LINE
8
PIPES
10
-949.10254
20
1650.0005
30
0
11
-1035.705081
21
1700.0005
31
0
0
LINE
8
PIPES
10
-949.10254
20
1950.0005
30
0
11
-1035.705081
21
2000.0005
31
0
0
LINE
8
PIPES
10
-1035.705081
20
1700.0005
30
0
11
-1035.705081
21
2000.0005
31
0
0
LINE
8
PIPES
10
-1035.705081
20
1700.0005
30
0
11
-1295.512702
21
1850.0005
31
0
0
LINE
8
PIPES
10
-1035.705081
20
2000.0005
30
0
11
-1295.512702
21
2150.0005
31
0
0
LINE
8
PIPES
10
-1295.512702
20
1850.0005
30
0
11
-1295.512702
21
2150.0005
31
0
0
LINE
8
PIPES
10
-1295.512702
20
1850.0005
30
0
11
-1555.328983
21
2000.0055
31
0
0
LINE
8
PIPES
10
-1295.512702
20
2150.0005
30
0
11
-1555.328983
21
2300.0055
31
0
0
LINE
8
PIPES
10
-1555.328983
20
2000.0055
30
0
11
-1555.328983
21
2300.0055
31
0
0
LINE
8
PIPES
10
-1555.328983
20
2000.0055
30
0
11
-1815.136604
21
2150.0055
31
0
0
LINE
8
PIPES
10
-1555.328983
20
2300.0055
30
0
11
-1815.136604
21
2450.0055
31
0
0
LINE
8
PIPES
10
-1815.136604
20
2150.0055
30
0
11
-1815.136604
21
2450.0055
31
0
0
LINE
8
PIPES
10
-1815.136604
20
2150.0055
30
0
11
-2074.944226
21
2300.0055
31
0
0
LINE
8
PIPES
10
-1815.136604
20
2450.0055
30
0
11
-2074.944226
21
2600.0055
31
0
0
LINE
8
PIPES
10
-2074.944226
20
2300.0055
30
0
11
-2074.944226
21
2600.0055
31
0
0
LINE
8
PIPES
10
-2074.944226
20
2300.0055
30
0
11
-2334.751847
21
2450.0055
31
0
0
LINE
8
PIPES
10
-2074.944226
20
2600.0055
30
0
11
-2334.751847
21
2750.0055
31
0
0
LINE
8
PIPES
10
-2334.751847
20
2450.0055
30
0
11
-2334.751847
21
2750.0055
31
0
0
LINE
8
PIPES
10
-2334.751847
20
2450.0055
30
0
11
-2681.162008
21
2650.0055
31
0
0
LINE
8
PIPES
10
-2334.751847
20
2750.0055
30
0
11
-2681.162008
21
2950.0055
31
0
0
LINE
8
PIPES
10
-2681.162008
20
2950.0055
30
0
11
-2681.162008
21
2650.0055
31
0
0
LINE
8
PIPES
10
-732.596189
20
1825.0005
30
0
11
-516.089838
21
1700.0005
31
0
0
LINE
8
PIPES
10
-732.596189
20
1525.0005
30
0
11
-516.089838
21
1400.0005
31
0
0
LINE
8
PIPES
10
-732.596189
20
1525.0005
30
0
11
-732.596189
21
1825.0005
31
0
0
LINE
8
PIPES
10
-126.378407
20
1475.0005
30
0
11
3.523672
21
1400.0015
31
0
0
LINE
8
PIPES
10
-1035.705081
20
1600.0005
30
0
11
-949.10254
21
1650.0005
31
0
0
LINE
8
PIPES
10
-1035.705081
20
1900.0005
30
0
11
-949.10254
21
1950.0005
31
0
0
LINE
8
PIPES
10
696.345727
20
600.0005
30
0
11
782.948267
21
650.0005
31
0
0
LINE
8
PIPES
10
696.345727
20
900.0005
30
0
11
782.948267
21
950.0005
31
0
0
LINE
8
PIPES
10
-2767.764549
20
2600.0055
30
0
11
-2854.367089
21
2550.0055
31
0
0
LINE
8
PIPES
10
-2767.764549
20
2900.0055
30
0
11
-3027.57217
21
2750.0055
31
0
0
LINE
8
PIPES
10
-1035.705081
20
1600.0005
30
0
11
-1035.705081
21
1900.0005
31
0
0
LINE
8
PIPES
10
-1035.705081
20
1600.0005
30
0
11
-819.19873
21
1475.0005
31
0
0
LINE
8
PIPES
10
-1035.705081
20
1900.0005
30
0
11
-819.19873
21
1775.0005
31
0
0
LINE
8
PIPES
10
-602.692379
20
1350.0005
30
0
11
-602.692379
21
1650.0005
31
0
0
LINE
8
PIPES
10
-602.692379
20
1350.0005
30
0
11
-342.884758
21
1200.0005
31
0
0
LINE
8
PIPES
10
-602.692379
20
1650.0005
30
0
11
-342.884758
21
1500.0005
31
0
0
LINE
8
PIPES
10
-342.884758
20
1200.0005
30
0
11
-342.884758
21
1500.0005
31
0
0
LINE
8
PIPES
10
-342.884758
20
1200.0005
30
0
11
-83.078869
21
1050.0015
31
0
0
LINE
8
PIPES
10
-342.884758
20
1500.0005
30
0
11
-212.980947
21
1425.0005
31
0
0
LINE
8
PIPES
10
-83.078869
20
1050.0015
30
0
11
-83.078869
21
1350.0015
31
0
0
LINE
8
PIPES
10
-83.078869
20
1050.0015
30
0
11
176.729619
21
900.001
31
0
0
LINE
8
PIPES
10
176.729619
20
900.001
30
0
11
176.729619
21
1200.001
31
0
0
LINE
8
PIPES
10
176.729619
20
900.001
30
0
11
436.53724
21
750.001
31
0
0
LINE
8
PIPES
10
436.53724
20
750.001
30
0
11
436.53724
21
1050.001
31
0
0
LINE
8
PIPES
10
436.53724
20
750.001
30
0
11
696.345727
21
600.0005
31
0
0
LINE
8
PIPES
10
696.345727
20
600.0005
30
0
11
696.345727
21
900.0005
31
0
0
LINE
8
PIPES
10
-1035.705081
20
1600.0005
30
0
11
-1122.307621
21
1650.0005
31
0
0
LINE
8
PIPES
10
-1035.705081
20
1900.0005
30
0
11
-1122.307621
21
1950.0005
31
0
0
LINE
8
PIPES
10
-1122.307621
20
1650.0005
30
0
11
-1122.307621
21
1950.0005
31
0
0
LINE
8
PIPES
10
-1122.307621
20
1650.0005
30
0
11
-1382.115242
21
1800.0005
31
0
0
LINE
8
PIPES
10
-1122.307621
20
1950.0005
30
0
11
-1382.115242
21
2100.0005
31
0
0
LINE
8
PIPES
10
-1382.115242
20
1800.0005
30
0
11
-1382.115242
21
2100.0005
31
0
0
LINE
8
PIPES
10
-1382.115242
20
1800.0005
30
0
11
-1641.931524
21
1950.0055
31
0
0
LINE
8
PIPES
10
-1382.115242
20
2100.0005
30
0
11
-1641.931524
21
2250.0055
31
0
0
LINE
8
PIPES
10
-1641.931524
20
1950.0055
30
0
11
-1641.931524
21
2250.0055
31
0
0
LINE
8
PIPES
10
-1641.931524
20
1950.0055
30
0
11
-1901.739145
21
2100.0055
31
0
0
LINE
8
PIPES
10
-1901.739145
20
2100.0055
30
0
11
-1901.739145
21
2400.0055
31
0
0
LINE
8
PIPES
10
-1901.739145
20
2100.0055
30
0
11
-2161.546766
21
2250.0055
31
0
0
LINE
8
PIPES
10
-2161.546766
20
2250.0055
30
0
11
-2161.546766
21
2550.0055
31
0
0
LINE
8
PIPES
10
-2161.546766
20
2250.0055
30
0
11
-2421.354387
21
2400.0055
31
0
0
LINE
8
PIPES
10
-2161.546766
20
2550.0055
30
0
11
-2421.354387
21
2700.0055
31
0
0
LINE
8
PIPES
10
-2421.354387
20
2400.0055
30
0
11
-2421.354387
21
2700.0055
31
0
0
LINE
8
PIPES
10
-2421.354387
20
2400.0055
30
0
11
-2767.764549
21
2600.0055
31
0
0
LINE
8
PIPES
10
-2421.354387
20
2700.0055
30
0
11
-2767.764549
21
2900.0055
31
0
0
LINE
8
PIPES
10
-2767.764549
20
2900.0055
30
0
11
-2767.764549
21
2600.0055
31
0
0
LINE
8
PIPES
10
-819.19873
20
1775.0005
30
0
11
-602.692379
21
1650.0005
31
0
0
LINE
8
PIPES
10
-819.19873
20
1475.0005
30
0
11
-602.692379
21
1350.0005
31
0
0
LINE
8
PIPES
10
-819.19873
20
1475.0005
30
0
11
-819.19873
21
1775.0005
31
0
0
LINE
8
PIPES
10
-212.980947
20
1425.0005
30
0
11
-83.078869
21
1350.0015
31
0
0
LINE
8
PIPES
10
-2161.538106
20
-2450.0095
30
0
11
-429.487298
21
-3450.0095
31
0
0
LINE
8
PIPES
10
436.546766
20
-950.0045
30
0
11
-1295.512702
21
50.0005
31
0
0
CIRCLE
8
DIMENSION
62
6
10
-429.487298
20
-3450.0095
30
0
40
85
0
CIRCLE
8
DIMENSION
62
6
10
436.546766
20
-950.0045
30
0
40
85
0
CIRCLE
8
DIMENSION
62
6
10
436.546766
20
2450.0055
30
0
40
85
0
LINE
8
DIMENSION
62
6
10
-429.487298
20
-3450.0095
30
0
11
2718.597573
21
-3450.0095
31
0
0
LINE
8
DIMENSION
62
6
10
2718.597573
20
-3450.0095
30
0
11
2718.597573
21
2630.0055
31
0
0
LINE
8
DIMENSION
62
6
10
436.546766
20
-950.0045
30
0
11
2718.597573
21
-950.0045
31
0
0
LINE
8
DIMENSION
62
6
10
2718.597573
20
-950.0045
30
0
11
2718.597573
21
2630.0055
31
0
0
LINE
8
DIMENSION
62
6
10
436.546766
20
2450.0055
30
0
11
2718.597573
21
2450.0055
31
0
0
LINE
8
DIMENSION
62
6
10
2718.597573
20
2450.0055
30
0
11
2718.597573
21
2630.0055
31
0
0
LINE
8
DIMENSION
62
6
10
2718.597573
20
2630.0055
30
0
11
2988.597573
21
2630.0055
31
0
0
TEXT
8
DIMENSION
62
6
10
3068.597573
20
2630.0055
30
0
40
75
1
Tie points to
50
0
7
STANDARD
0
TEXT
8
DIMENSION
62
6
10
3068.597573
20
2500.0055
30
0
40
75
1
existing structures
50
0
7
STANDARD
0
TEXT
8
DIMENSION
62
6
10
3068.597573
20
2370.0055
30
0
40
75
1
at indicated points.
50
0
7
STANDARD
0
ENDSEC
0
EOF
